<svg viewBox="0 0 330 200" xmlns="http://www.w3.org/2000/svg"><g><g><g><g><g><line x1="40" y1="177" x2="35" y2="177" style="visibility: inherit;" fill="rgb(0, 0, 0)" stroke="rgb(204, 204, 204)" stroke-width="1px"></line><line x1="40" y1="154.875" x2="35" y2="154.875" style="visibility: inherit;" fill="rgb(0, 0, 0)" stroke="rgb(204, 204, 204)" stroke-width="1px"></line><line x1="40" y1="132.75" x2="35" y2="132.75" style="visibility: inherit;" fill="rgb(0, 0, 0)" stroke="rgb(204, 204, 204)" stroke-width="1px"></line><line x1="40" y1="110.625" x2="35" y2="110.625" style="visibility: inherit;" fill="rgb(0, 0, 0)" stroke="rgb(204, 204, 204)" stroke-width="1px"></line><line x1="40" y1="88.5" x2="35" y2="88.5" style="visibility: inherit;" fill="rgb(0, 0, 0)" stroke="rgb(204, 204, 204)" stroke-width="1px"></line><line x1="40" y1="66.375" x2="35" y2="66.375" style="visibility: inherit;" fill="rgb(0, 0, 0)" stroke="rgb(204, 204, 204)" stroke-width="1px"></line><line x1="40" y1="44.24999999999998" x2="35" y2="44.24999999999998" style="visibility: inherit;" fill="rgb(0, 0, 0)" stroke="rgb(204, 204, 204)" stroke-width="1px"></line><line x1="40" y1="22.12500000000002" x2="35" y2="22.12500000000002" style="visibility: inherit;" fill="rgb(0, 0, 0)" stroke="rgb(204, 204, 204)" stroke-width="1px"></line><line x1="40" y1="0" x2="35" y2="0" style="visibility: inherit;" fill="rgb(0, 0, 0)" stroke="rgb(204, 204, 204)" stroke-width="1px"></line></g><g transform="translate(30, 0)"><text x="0" y="177" dx="0em" dy="0.3em" style="text-anchor: end; visibility: hidden; font-family: Roboto, sans-serif; font-size: 12px; font-weight: 200;" fill="rgb(33, 33, 33)" stroke="none" stroke-width="1px">0.3</text><text x="0" y="154.875" dx="0em" dy="0.3em" style="text-anchor: end; visibility: inherit; font-family: Roboto, sans-serif; font-size: 12px; font-weight: 200;" fill="rgb(33, 33, 33)" stroke="none" stroke-width="1px">0.4</text><text x="0" y="132.75" dx="0em" dy="0.3em" style="text-anchor: end; visibility: hidden; font-family: Roboto, sans-serif; font-size: 12px; font-weight: 200;" fill="rgb(33, 33, 33)" stroke="none" stroke-width="1px">0.5</text><text x="0" y="110.625" dx="0em" dy="0.3em" style="text-anchor: end; visibility: inherit; font-family: Roboto, sans-serif; font-size: 12px; font-weight: 200;" fill="rgb(33, 33, 33)" stroke="none" stroke-width="1px">0.6</text><text x="0" y="88.5" dx="0em" dy="0.3em" style="text-anchor: end; visibility: hidden; font-family: Roboto, sans-serif; font-size: 12px; font-weight: 200;" fill="rgb(33, 33, 33)" stroke="none" stroke-width="1px">0.7</text><text x="0" y="66.375" dx="0em" dy="0.3em" style="text-anchor: end; visibility: inherit; font-family: Roboto, sans-serif; font-size: 12px; font-weight: 200;" fill="rgb(33, 33, 33)" stroke="none" stroke-width="1px">0.8</text><text x="0" y="44.24999999999998" dx="0em" dy="0.3em" style="text-anchor: end; visibility: hidden; font-family: Roboto, sans-serif; font-size: 12px; font-weight: 200;" fill="rgb(33, 33, 33)" stroke="none" stroke-width="1px">0.9</text><text x="0" y="22.12500000000002" dx="0em" dy="0.3em" style="text-anchor: end; visibility: inherit; font-family: Roboto, sans-serif; font-size: 12px; font-weight: 200;" fill="rgb(33, 33, 33)" stroke="none" stroke-width="1px">1</text><text x="0" y="0" dx="0em" dy="0.3em" style="text-anchor: end; visibility: hidden; font-family: Roboto, sans-serif; font-size: 12px; font-weight: 200;" fill="rgb(33, 33, 33)" stroke="none" stroke-width="1px">1.1</text></g><line x1="40" y1="0" x2="40" y2="177" fill="rgb(0, 0, 0)" stroke="rgb(204, 204, 204)" stroke-width="1px"></line></g></g><g transform="translate(40, 0)" clip-path="url(#clip_0)"><clipPath id="clip_0"><rect width="290" height="177"></rect></clipPath><g><g><g><line x1="0" y1="0" x2="0" y2="177" fill="rgb(0, 0, 0)" stroke="rgb(66, 66, 66)" stroke-width="1px" opacity="0.25"></line><line x1="24.166666666666664" y1="0" x2="24.166666666666664" y2="177" fill="rgb(0, 0, 0)" stroke="rgb(66, 66, 66)" stroke-width="1px" opacity="0.25"></line><line x1="48.33333333333333" y1="0" x2="48.33333333333333" y2="177" fill="rgb(0, 0, 0)" stroke="rgb(66, 66, 66)" stroke-width="1px" opacity="0.25"></line><line x1="72.5" y1="0" x2="72.5" y2="177" fill="rgb(0, 0, 0)" stroke="rgb(66, 66, 66)" stroke-width="1px" opacity="0.25"></line><line x1="96.66666666666666" y1="0" x2="96.66666666666666" y2="177" fill="rgb(0, 0, 0)" stroke="rgb(66, 66, 66)" stroke-width="1px" opacity="0.25"></line><line x1="120.83333333333334" y1="0" x2="120.83333333333334" y2="177" fill="rgb(0, 0, 0)" stroke="rgb(66, 66, 66)" stroke-width="1px" opacity="0.25"></line><line x1="145" y1="0" x2="145" y2="177" fill="rgb(0, 0, 0)" stroke="rgb(66, 66, 66)" stroke-width="1px" opacity="0.25"></line><line x1="169.16666666666669" y1="0" x2="169.16666666666669" y2="177" fill="rgb(0, 0, 0)" stroke="rgb(66, 66, 66)" stroke-width="1px" opacity="0.25"></line><line x1="193.33333333333331" y1="0" x2="193.33333333333331" y2="177" fill="rgb(0, 0, 0)" stroke="rgb(66, 66, 66)" stroke-width="1px" opacity="0.25"></line><line x1="217.5" y1="0" x2="217.5" y2="177" fill="rgb(0, 0, 0)" stroke="rgb(66, 66, 66)" stroke-width="1px" opacity="0.25"></line><line x1="241.66666666666669" y1="0" x2="241.66666666666669" y2="177" fill="rgb(0, 0, 0)" stroke="rgb(66, 66, 66)" stroke-width="1px" opacity="0.25"></line><line x1="265.8333333333333" y1="0" x2="265.8333333333333" y2="177" fill="rgb(0, 0, 0)" stroke="rgb(66, 66, 66)" stroke-width="1px" opacity="0.25"></line><line x1="290" y1="0" x2="290" y2="177" fill="rgb(0, 0, 0)" stroke="rgb(66, 66, 66)" stroke-width="1px" opacity="0.25"></line></g><g><line x1="0" y1="177" x2="290" y2="177" fill="rgb(0, 0, 0)" stroke="rgb(66, 66, 66)" stroke-width="1px" opacity="0.25"></line><line x1="0" y1="154.875" x2="290" y2="154.875" fill="rgb(0, 0, 0)" stroke="rgb(66, 66, 66)" stroke-width="1px" opacity="0.25"></line><line x1="0" y1="132.75" x2="290" y2="132.75" fill="rgb(0, 0, 0)" stroke="rgb(66, 66, 66)" stroke-width="1px" opacity="0.25"></line><line x1="0" y1="110.625" x2="290" y2="110.625" fill="rgb(0, 0, 0)" stroke="rgb(66, 66, 66)" stroke-width="1px" opacity="0.25"></line><line x1="0" y1="88.5" x2="290" y2="88.5" fill="rgb(0, 0, 0)" stroke="rgb(66, 66, 66)" stroke-width="1px" opacity="0.25"></line><line x1="0" y1="66.375" x2="290" y2="66.375" fill="rgb(0, 0, 0)" stroke="rgb(66, 66, 66)" stroke-width="1px" opacity="0.25"></line><line x1="0" y1="44.24999999999998" x2="290" y2="44.24999999999998" fill="rgb(0, 0, 0)" stroke="rgb(66, 66, 66)" stroke-width="1px" opacity="0.25"></line><line x1="0" y1="22.12500000000002" x2="290" y2="22.12500000000002" fill="rgb(0, 0, 0)" stroke="rgb(66, 66, 66)" stroke-width="1px" opacity="0.25"></line><line x1="0" y1="0" x2="290" y2="0" fill="rgb(0, 0, 0)" stroke="rgb(66, 66, 66)" stroke-width="1px" opacity="0.25"></line></g></g></g><g><g><line x1="0" y1="243.375" x2="290" y2="243.375" fill="rgb(0, 0, 0)" stroke="rgb(153, 153, 153)" stroke-width="1.5px"></line></g></g><g><g><line x1="24.166666666666664" y1="0" x2="24.166666666666664" y2="177" fill="rgb(0, 0, 0)" stroke="rgb(153, 153, 153)" stroke-width="1.5px"></line></g></g><g><g><g><g><g><path stroke="rgb(51, 187, 238)" stroke-width="2px" d="M24.166666666666664,126.92762741446495L24.650000000000002,148.7615122469142L25.133333333333333,149.50416139087508L25.616666666666667,144.48035835819869L26.099999999999998,141.91790504173986L26.583333333333332,145.40004770056507L27.066666666666666,166.55052760850546L27.55,164.64301493560063L28.03333333333333,158.81390680934385L28.516666666666666,145.9818042341159L29,138.33238162623311L29.483333333333334,133.76052801133417L29.966666666666665,135.68778032878998L30.45,132.18097108130675L30.933333333333334,125.418561237585L31.416666666666668,126.02235804605283L31.9,126.38452709653946L32.38333333333333,126.60178928884851L32.86666666666667,112.75759727450841L33.35,95.13549052124064L33.833333333333336,98.53663430241964L34.31666666666666,105.23522692183819L34.8,109.25432606551254L35.28333333333334,102.34993023417114L35.766666666666666,93.54940763747044L36.25,92.92701083131105L36.733333333333334,87.89567586637074L37.21666666666666,94.19267476572512L37.7,111.94455779694083L38.18333333333333,99.3062064012616L38.666666666666664,87.06529866574864L39.150000000000006,84.3786535027352L39.63333333333333,92.08245784846495L40.11666666666667,87.38894909171141L40.6,89.23073679721246L41.083333333333336,94.99370751672123L41.56666666666667,103.10938273262687L42.05,98.66299693358981L42.53333333333333,86.67937458213436L43.01666666666667,84.14709926300259L43.5,110.5751014066291L43.983333333333334,112.45821901725267L44.46666666666666,122.90387781007614L44.95,105.88180120020374L45.43333333333334,104.98434609898098L45.916666666666664,90.47218410716249L46.4,105.05436143062916L46.88333333333333,95.17209137526261L47.36666666666667,84.58483127369395L47.85,73.57458241938933L48.33333333333333,76.28422396875374L48.81666666666667,77.91000889836397L49.300000000000004,92.8591635114135L49.78333333333333,87.85497262394986L50.266666666666666,89.51035088489493L50.75,90.5035778414613L51.233333333333334,81.7837231535538L51.71666666666667,90.5254992710855L52.199999999999996,91.11266687317533L52.68333333333334,82.1491765725837L53.166666666666664,81.42898046065721L53.65,76.33896472507321L54.13333333333333,68.62706249030583L54.61666666666667,68.65781394286248L55.1,73.33416288282451L55.583333333333336,80.79786504021872L56.06666666666666,85.27608633465523L56.550000000000004,87.96301911131714L57.03333333333333,89.57517877731426L57.516666666666666,85.88458178349555L58,83.67022358720433L58.483333333333334,77.68371060100155L58.96666666666667,74.09180280927988L59.449999999999996,81.25244899609194L59.93333333333333,80.89094391476216L60.41666666666667,85.33193365938126L60.9,83.33863471273578L61.38333333333333,91.45844620659346L61.86666666666667,87.01454224106308L62.35,93.66399072358988L62.833333333333336,83.67997088283288L63.31666666666666,77.68955897837868L63.8,74.09531183570618L64.28333333333333,71.93876355010269L64.76666666666667,75.30273264716861L65.25,68.00532324356315L65.73333333333333,77.60056125666186L66.21666666666667,69.38402040925911L66.7,73.7698867626625L67.18333333333334,81.0592993681215L67.66666666666667,80.77505413797991L68.14999999999999,80.60450699989495L68.63333333333333,71.18638785519896L69.11666666666667,70.19340916179836L69.6,74.255520014186L70.08333333333333,90.66647018088062L70.56666666666668,91.19724941905238L71.05,86.85782416853844L71.53333333333333,84.25416901823006L72.01666666666667,87.34986872146203L72.5,70.57571209472222L72.98333333333333,65.16911091209535L73.46666666666667,66.5830429959362L73.95,72.0893003146687L74.43333333333332,61.41937105064625L74.91666666666667,64.3331990790667L75.4,70.73939396454706L75.88333333333333,69.92521282740721L76.36666666666666,83.41039307539636L76.85000000000001,77.52781229391677L77.33333333333333,60.02458016976703L77.81666666666666,54.18053896370524L78.30000000000001,59.98989982690212L78.78333333333333,68.13341441324827L79.26666666666667,63.703732303210955L79.75,65.70381583060555L80.23333333333333,52.93018229178031L80.71666666666667,59.23968582374714L81.2,72.34117880477228L81.68333333333334,66.22839093812533L82.16666666666667,67.21861101155419L82.64999999999999,81.78643198588455L83.13333333333334,71.89554284679274L83.61666666666666,70.61890215675461L84.1,65.19502494931474L84.58333333333334,71.25648948669586L85.06666666666666,70.23547014069649L85.55,83.59654746336992L86.03333333333335,68.32371933986695L86.51666666666667,68.47580805259915L87,73.2249593486665L87.48333333333333,76.07445012630691L87.96666666666667,73.12624652446314L88.45,80.67311522520187L88.93333333333332,66.56965999696614L89.41666666666667,72.08127051528669L89.9,70.73033875785097L90.38333333333333,65.2618869099726L90.86666666666667,57.32292300782861L91.35,66.53322832180416L91.83333333333333,62.74362064834451L92.31666666666668,60.46985604426869L92.8,63.763490075240206L93.28333333333333,56.42388490698913L93.76666666666667,65.9938054613005L94.25,71.73575779388729L94.73333333333333,70.52303112501137L95.21666666666665,60.47960953685186L95.7,59.1114493773731L96.18333333333334,67.60634414353083L96.66666666666666,77.3611737966425L97.15,64.58249513983056L97.63333333333334,75.54686439442233L98.11666666666666,72.80969508533236L98.60000000000001,71.16739349987837L99.08333333333333,51.550436099927005L99.56666666666666,63.06973617706322L100.05,60.66552536149993L100.53333333333333,54.565106078744975L101.01666666666667,64.87853816435398L101.5,57.092913760457414L101.98333333333333,66.39522277338143L102.46666666666667,62.66081731929087L102.94999999999999,60.4201740468365L103.43333333333334,49.7599972215189L103.91666666666667,52.67968198817334L104.39999999999999,59.08938564158294L104.88333333333334,44.30363138494979L105.36666666666667,58.72165334807687L105.85,67.37246652595312L106.33333333333333,67.90505636425084L106.81666666666668,68.22461026722948L107.3,59.10055702218273L107.78333333333333,53.62612507515466L108.26666666666667,64.31514956219979L108.75,70.72856425442687L109.23333333333333,65.2608222079181L109.71666666666667,66.63806977342985L110.2,62.806525519319926L110.68333333333332,55.849706173436964L111.16666666666667,51.67561456590722L111.65,49.171159601389334L112.13333333333333,52.326379416095584L112.61666666666666,54.21951130491933L113.10000000000001,55.35539043821358L113.58333333333333,46.72112705634513L114.06666666666666,60.17215075091407L114.55000000000001,58.926974105810444L115.03333333333333,48.864077256903265L115.51666666666667,52.14213000940392L116,49.45106886748737L116.48333333333333,52.4943249757544L116.96666666666667,58.97817143413163L117.45,62.86847930915796L117.93333333333334,65.20266403417374L118.41666666666667,57.28738928234927L118.89999999999999,66.51190808651657L119.38333333333334,67.38872130058891L119.86666666666666,58.599023642198354L120.35,48.66730697873599L120.83333333333334,56.681960635920554L121.31666666666666,61.49075283023131L121.8,59.718135353400804L122.28333333333335,58.65456486730246L122.76666666666667,62.67431536906045L123.25,55.770380083281275L123.73333333333333,51.62801891181378L124.21666666666667,49.14260220893331L124.7,52.30924498062197L125.18333333333332,40.23554698837319L125.66666666666667,42.307119054868934L126.15,38.892164226338345L126.63333333333333,50.81687498448196L127.11666666666667,57.97170143936813L127.6,57.6067045188829L128.08333333333334,52.72981357317478L128.56666666666666,45.14578093732183L129.05,54.56904501107209L129.53333333333333,50.9072178684883L130.01666666666665,58.02590716977194L130.5,48.32343709528016L130.98333333333332,42.50195505058506L131.46666666666667,43.6669638921961L131.95000000000002,49.023861990579626L132.43333333333334,38.26431719434778L132.91666666666666,50.44016676528765L133.4,43.77199285258955L133.88333333333333,35.113195711553715L134.36666666666667,34.575810220349226L134.85,48.227062580888514L135.33333333333334,37.78623754853311L135.81666666666666,45.49542618438183L136.29999999999998,40.805148504046095L136.78333333333333,33.333089102427664L137.26666666666665,33.50774625487356L137.75,42.92833140818612L138.23333333333335,34.60699884491167L138.71666666666667,34.272092100364006L139.2,38.7290461220634L139.68333333333334,46.06111132850002L140.16666666666666,50.460350452362015L140.65,53.09989392667919L141.13333333333335,59.34151280468649L141.61666666666667,53.77069854465693L142.1,45.770311920211164L142.58333333333331,36.31218715212666L143.06666666666666,35.295205084693L143.55,34.68501584423279L144.03333333333333,43.634693161801636L144.51666666666668,49.004499552343L145,42.91059252482277L145.48333333333335,48.57003917015566L145.96666666666667,42.64991629551038L146.45,43.75574063915127L146.93333333333334,49.07712803875275L147.41666666666666,52.269960478513646L147.9,44.86986908052517L148.38333333333335,45.08771231016014L148.86666666666665,45.21841824794112L149.35,49.95473460402667L149.83333333333334,43.48073355583296L150.31666666666666,44.25423099534482L150.8,35.402538597206885L151.28333333333333,44.06520681358611L151.76666666666665,39.947016881568686L152.25,42.13400099078622L152.73333333333332,43.44619145631677L153.21666666666667,44.233505735635084L153.70000000000002,35.390103441381044L154.1833333333333,30.08406206482861L154.66666666666666,40.87412089415919L155.15,38.03236532991248L155.63333333333333,31.669419197947494L156.11666666666667,41.82533517403048L156.60000000000002,33.94520110441831L157.08333333333331,38.53291152449599L157.56666666666666,36.627639708114536L158.05,40.142374686713765L158.53333333333333,37.59331760544522L159.01666666666668,36.06388335668413L159.5,35.14622280742746L159.98333333333332,34.595626477873424L160.46666666666667,34.265268680141055L160.95000000000002,34.06705400150162L161.43333333333334,33.94812519431793L161.91666666666666,29.218875116590763L162.4,40.35500872521646L162.88333333333333,47.03668889039184L163.36666666666667,37.07201333423511L163.85,45.06689165580306L164.33333333333334,35.890134993481844L164.81666666666666,35.04197378950607L165.29999999999998,29.875184273703667L165.78333333333333,31.43300335763918L166.26666666666668,32.36769480800047L166.75,37.58640774664533L167.23333333333332,31.40184464798718L167.71666666666667,41.66479044405431L168.2,33.84887426643257L168.68333333333334,43.13300821512154L169.16666666666669,34.72980492907293L169.64999999999998,29.68788295744376L170.13333333333333,26.66272977446626L170.61666666666667,24.84763786467978L171.1,28.416475512224853L171.58333333333334,25.899885307334895L172.0666666666667,38.36361483966294L172.54999999999998,41.18395976564278L173.03333333333333,42.876166721230675L173.51666666666668,43.89149089458345L174,35.18489453675006L174.48333333333335,39.27672758389506L174.96666666666667,41.73182741218204L175.45,38.546989240726205L175.93333333333334,31.978193544435708L176.41666666666666,28.03691612666143L176.9,44.303726124675855L177.38333333333335,44.74802653665053L177.86666666666665,40.35670871540729L178.35,37.72191802266138L178.83333333333334,40.79894167544185L179.31666666666666,37.98725779868207L179.8,31.642354679209248L180.28333333333333,37.151203669370574L180.76666666666665,31.140722201622353L181.25,27.534433320973378L181.73333333333335,25.37065999258403L182.21666666666667,33.388186857395446L182.7,33.54080490785425L183.18333333333334,28.974482944712573L183.66666666666666,30.89258256024453L184.15,32.04344232956368L184.63333333333335,32.73395819115521L185.11666666666665,37.806165776538144L185.6,40.84949032776791L186.08333333333334,33.359694196660755L186.56666666666666,42.839500173258415L187.05,39.21159289737205L187.53333333333333,46.35063939368519L188.01666666666665,45.976174498056174L188.5,41.09359749225069L188.98333333333332,33.50615849535041L189.46666666666667,33.61158789062725L189.95000000000002,33.674845527793316L190.4333333333333,47.686483765354964L190.91666666666666,42.119783052629955L191.4,34.121869831578L191.88333333333333,33.981014692363765L192.36666666666667,38.554399677263305L192.85000000000002,41.29843066820299L193.33333333333331,38.286951194338755L193.81666666666666,36.48006351002023L194.3,30.738038106012144L194.78333333333333,41.266506518869285L195.26666666666668,33.609903911321574L195.75,29.015942346792947L196.23333333333332,35.575356269920775L196.71666666666667,30.195213761952452L197.20000000000002,26.967128257171478L197.68333333333334,29.688169747719872L198.16666666666666,40.636585503893905L198.65,37.889844095753325L199.13333333333333,36.24179925086898L199.61666666666667,30.59507955052139L200.1,31.8649405237298L200.58333333333334,37.2847551760829L201.06666666666666,35.8787458990667L201.54999999999998,30.377247539440027L202.03333333333333,31.734241317081022L202.51666666666668,27.8905447902486L203,30.242219667566122L203.48333333333332,40.96901545580165L203.96666666666667,38.08930206689799L204.45,31.7035812401388L204.93333333333334,32.53004153750027L205.41666666666669,28.368024922500165L205.89999999999998,39.84449860876206L206.38333333333333,32.75669916525724L206.86666666666667,37.819810360999405L207.35,36.19977901001664L207.83333333333334,30.569867406009955L208.3166666666667,31.849813237022992L208.79999999999998,27.959887942213765L209.28333333333333,34.94172362717328L209.76666666666668,34.472926969720966L210.25,38.849547043677624L210.73333333333335,36.81762101962352L211.21666666666667,35.59846540519109L211.7,34.86697203653168L212.18333333333334,29.770183221918995L212.66666666666666,31.37000272656838L213.15,32.32989442935799L213.63333333333335,28.247936657614783L214.11666666666665,35.11455285641389L214.6,34.576624507265294L215.08333333333334,34.253867497776184L215.56666666666666,34.06021329208266L216.05,33.944020768666576L216.53333333333333,33.87430525461691L217.01666666666665,29.17458315277013L217.5,31.012642685079058L217.98333333333335,27.457585611047442L218.46666666666667,39.29823502189045L218.95,51.06051746181325L219.43333333333334,44.14420327050491L219.91666666666666,35.336521962302974L220.4,30.05191317738177L220.88333333333335,31.539040699846062L221.36666666666665,27.773424419907606L221.85,30.171947445361546L222.33333333333334,26.953168467216916L222.81666666666666,25.021901080330174L223.3,28.521033441615085L223.78333333333333,25.962620064969055L224.26666666666665,29.085464832398433L224.75,30.959171692856025L225.23333333333332,27.42550301571364L225.71666666666667,25.305301809428194L226.20000000000002,24.033181085656924L226.6833333333333,37.24359230665612L227.16666666666666,35.854048177410654L227.65,35.020321699863395L228.13333333333333,39.17798388176304L228.61666666666667,32.35679032905783L229.10000000000002,37.57986505927972L229.58333333333331,40.713709897412855L230.06666666666666,37.936118731864696L230.55,40.92746210096382L231.03333333333333,38.064370053995255L231.51666666666668,36.346514825814175L232,30.65790889548851L232.48333333333332,36.56053619913815L232.96666666666667,35.444214512899876L233.45000000000002,30.11652870773993L233.93333333333334,31.57781001806094L234.41666666666666,37.112476872681604L234.9,31.117486123608952L235.38333333333333,32.178384467582376L235.86666666666667,28.157030680549408L236.35,30.40211120174665L236.83333333333334,27.091266721047997L237.31666666666666,29.76265282604578L237.79999999999998,36.02338255747253L238.28333333333333,30.464029534483508L238.76666666666668,36.444208582535126L239.25,30.716525149521097L239.73333333333332,31.937807883129626L240.21666666666667,46.644261178556775L240.7,41.49444950055105L241.18333333333334,33.746669700330614L241.66666666666669,29.098001820198377L242.14999999999998,30.966693885536007L242.63333333333333,32.08790912473861L243.11666666666667,32.760638268260166L243.6,33.164275754373044L244.08333333333334,28.74856545262385L244.5666666666667,26.09913927157432L245.04999999999998,24.50948356294456L245.53333333333333,23.55569013776676L246.01666666666668,22.98341408266008L246.5,22.640048449596037L246.98333333333335,22.434029069757646L247.46666666666667,26.96831023527153L247.95,25.03098614116294L248.43333333333334,28.52648447811471L248.91666666666666,35.28168154871387L249.4,34.67690172264528L249.88333333333335,38.97193189543221L250.36666666666665,41.548949999104366L250.85,33.779369999462645L251.33333333333334,38.43341286152259L251.81666666666666,36.56794051033054L252.3,49.422340754877276L252.78333333333333,43.161297246343345L253.26666666666665,39.40467114122301L253.75,37.15069547815079L254.23333333333335,35.79831008030746L254.71666666666667,30.328986048184483L255.2,27.04739162891069L255.68333333333334,29.73632777076338L256.1666666666667,36.00758752430305L256.65,35.11244530799881L257.1333333333333,34.57535997821629L257.6166666666667,38.91100684877482L258.1,32.196604109264875L258.58333333333337,32.82585525897594L259.06666666666666,37.86130401723061L259.55,40.88257327218339L260.0333333333333,33.37954396331004L260.51666666666665,38.193517239831046L261,36.42400313731561L261.4833333333333,35.36229467580637L261.96666666666664,34.725269598900766L262.45,29.685161759340446L262.93333333333334,31.318989849021285L263.4166666666667,36.95718477125779L263.90000000000003,31.024310862754703L264.3833333333333,27.46458651765281L264.8666666666667,25.32875191059167L265.35,24.04725114635501" style="fill: none;" fill="none"></path></g></g></g></g><g opacity="0.2"><g><g><g><path stroke="rgb(51, 187, 238)" stroke-width="2px" d="M24.166666666666664,126.92762741446495L24.650000000000002,161.86184314638376L25.133333333333333,150.2171045690775L25.616666666666667,138.57236599177122L26.099999999999998,138.57236599177122L26.583333333333332,150.2171045690775L27.066666666666666,196.79605228453875L27.55,161.86184314638376L28.03333333333333,150.2171045690775L28.516666666666666,126.92762741446495L29,126.92762741446495L29.483333333333334,126.92762741446495L29.966666666666665,138.57236599177122L30.45,126.92762741446495L30.933333333333334,115.28289543092251L31.416666666666668,126.92762741446495L31.9,126.92762741446495L32.38333333333333,126.92762741446495L32.86666666666667,91.99341827630997L33.35,68.70394112169743L33.833333333333336,103.63816344738007L34.31666666666666,115.28289543092251L34.8,115.28289543092251L35.28333333333334,91.99341827630997L35.766666666666666,80.34868629276752L36.25,91.99341827630997L36.733333333333334,80.34868629276752L37.21666666666666,103.63816344738007L37.7,138.57236599177122L38.18333333333333,80.34868629276752L38.666666666666664,68.70394112169743L39.150000000000006,80.34868629276752L39.63333333333333,103.63816344738007L40.11666666666667,80.34868629276752L40.6,91.99341827630997L41.083333333333336,103.63816344738007L41.56666666666667,115.28289543092251L42.05,91.99341827630997L42.53333333333333,68.70394112169743L43.01666666666667,80.34868629276752L43.5,150.2171045690775L43.983333333333334,115.28289543092251L44.46666666666666,138.57236599177122L44.95,80.34868629276752L45.43333333333334,103.63816344738007L45.916666666666664,68.70394112169743L46.4,126.92762741446495L46.88333333333333,80.34868629276752L47.36666666666667,68.70394112169743L47.85,57.059209138155005L48.33333333333333,80.34868629276752L48.81666666666667,80.34868629276752L49.300000000000004,115.28289543092251L49.78333333333333,80.34868629276752L50.266666666666666,91.99341827630997L50.75,91.99341827630997L51.233333333333334,68.70394112169743L51.71666666666667,103.63816344738007L52.199999999999996,91.99341827630997L52.68333333333334,68.70394112169743L53.166666666666664,80.34868629276752L53.65,68.70394112169743L54.13333333333333,57.059209138155005L54.61666666666667,68.70394112169743L55.1,80.34868629276752L55.583333333333336,91.99341827630997L56.06666666666666,91.99341827630997L56.550000000000004,91.99341827630997L57.03333333333333,91.99341827630997L57.516666666666666,80.34868629276752L58,80.34868629276752L58.483333333333334,68.70394112169743L58.96666666666667,68.70394112169743L59.449999999999996,91.99341827630997L59.93333333333333,80.34868629276752L60.41666666666667,91.99341827630997L60.9,80.34868629276752L61.38333333333333,103.63816344738007L61.86666666666667,80.34868629276752L62.35,103.63816344738007L62.833333333333336,68.70394112169743L63.31666666666666,68.70394112169743L63.8,68.70394112169743L64.28333333333333,68.70394112169743L64.76666666666667,80.34868629276752L65.25,57.059209138155005L65.73333333333333,91.99341827630997L66.21666666666667,57.059209138155005L66.7,80.34868629276752L67.18333333333334,91.99341827630997L67.66666666666667,80.34868629276752L68.14999999999999,80.34868629276752L68.63333333333333,57.059209138155005L69.11666666666667,68.70394112169743L69.6,80.34868629276752L70.08333333333333,115.28289543092251L70.56666666666668,91.99341827630997L71.05,80.34868629276752L71.53333333333333,80.34868629276752L72.01666666666667,91.99341827630997L72.5,45.41447715461256L72.98333333333333,57.059209138155005L73.46666666666667,68.70394112169743L73.95,80.34868629276752L74.43333333333332,45.41447715461256L74.91666666666667,68.70394112169743L75.4,80.34868629276752L75.88333333333333,68.70394112169743L76.36666666666666,103.63816344738007L76.85000000000001,68.70394112169743L77.33333333333333,33.769731983542464L77.81666666666666,45.41447715461256L78.30000000000001,68.70394112169743L78.78333333333333,80.34868629276752L79.26666666666667,57.059209138155005L79.75,68.70394112169743L80.23333333333333,33.769731983542464L80.71666666666667,68.70394112169743L81.2,91.99341827630997L81.68333333333334,57.059209138155005L82.16666666666667,68.70394112169743L82.64999999999999,103.63816344738007L83.13333333333334,57.059209138155005L83.61666666666666,68.70394112169743L84.1,57.059209138155005L84.58333333333334,80.34868629276752L85.06666666666666,68.70394112169743L85.55,103.63816344738007L86.03333333333335,45.41447715461256L86.51666666666667,68.70394112169743L87,80.34868629276752L87.48333333333333,80.34868629276752L87.96666666666667,68.70394112169743L88.45,91.99341827630997L88.93333333333332,45.41447715461256L89.41666666666667,80.34868629276752L89.9,68.70394112169743L90.38333333333333,57.059209138155005L90.86666666666667,45.41447715461256L91.35,80.34868629276752L91.83333333333333,57.059209138155005L92.31666666666668,57.059209138155005L92.8,68.70394112169743L93.28333333333333,45.41447715461256L93.76666666666667,80.34868629276752L94.25,80.34868629276752L94.73333333333333,68.70394112169743L95.21666666666665,45.41447715461256L95.7,57.059209138155005L96.18333333333334,80.34868629276752L96.66666666666666,91.99341827630997L97.15,45.41447715461256L97.63333333333334,91.99341827630997L98.11666666666666,68.70394112169743L98.60000000000001,68.70394112169743L99.08333333333333,22.12500000000002L99.56666666666666,80.34868629276752L100.05,57.059209138155005L100.53333333333333,45.41447715461256L101.01666666666667,80.34868629276752L101.5,45.41447715461256L101.98333333333333,80.34868629276752L102.46666666666667,57.059209138155005L102.94999999999999,57.059209138155005L103.43333333333334,33.769731983542464L103.91666666666667,57.059209138155005L104.39999999999999,68.70394112169743L104.88333333333334,22.12500000000002L105.36666666666667,80.34868629276752L105.85,80.34868629276752L106.33333333333333,68.70394112169743L106.81666666666668,68.70394112169743L107.3,45.41447715461256L107.78333333333333,45.41447715461256L108.26666666666667,80.34868629276752L108.75,80.34868629276752L109.23333333333333,57.059209138155005L109.71666666666667,68.70394112169743L110.2,57.059209138155005L110.68333333333332,45.41447715461256L111.16666666666667,45.41447715461256L111.65,45.41447715461256L112.13333333333333,57.059209138155005L112.61666666666666,57.059209138155005L113.10000000000001,57.059209138155005L113.58333333333333,33.769731983542464L114.06666666666666,80.34868629276752L114.55000000000001,57.059209138155005L115.03333333333333,33.769731983542464L115.51666666666667,57.059209138155005L116,45.41447715461256L116.48333333333333,57.059209138155005L116.96666666666667,68.70394112169743L117.45,68.70394112169743L117.93333333333334,68.70394112169743L118.41666666666667,45.41447715461256L118.89999999999999,80.34868629276752L119.38333333333334,68.70394112169743L119.86666666666666,45.41447715461256L120.35,33.769731983542464L120.83333333333334,68.70394112169743L121.31666666666666,68.70394112169743L121.8,57.059209138155005L122.28333333333335,57.059209138155005L122.76666666666667,68.70394112169743L123.25,45.41447715461256L123.73333333333333,45.41447715461256L124.21666666666667,45.41447715461256L124.7,57.059209138155005L125.18333333333332,22.12500000000002L125.66666666666667,45.41447715461256L126.15,33.769731983542464L126.63333333333333,68.70394112169743L127.11666666666667,68.70394112169743L127.6,57.059209138155005L128.08333333333334,45.41447715461256L128.56666666666666,33.769731983542464L129.05,68.70394112169743L129.53333333333333,45.41447715461256L130.01666666666665,68.70394112169743L130.5,33.769731983542464L130.98333333333332,33.769731983542464L131.46666666666667,45.41447715461256L131.95000000000002,57.059209138155005L132.43333333333334,22.12500000000002L132.91666666666666,68.70394112169743L133.4,33.769731983542464L133.88333333333333,22.12500000000002L134.36666666666667,33.769731983542464L134.85,68.70394112169743L135.33333333333334,22.12500000000002L135.81666666666666,57.059209138155005L136.29999999999998,33.769731983542464L136.78333333333333,22.12500000000002L137.26666666666665,33.769731983542464L137.75,57.059209138155005L138.23333333333335,22.12500000000002L138.71666666666667,33.769731983542464L139.2,45.41447715461256L139.68333333333334,57.059209138155005L140.16666666666666,57.059209138155005L140.65,57.059209138155005L141.13333333333335,68.70394112169743L141.61666666666667,45.41447715461256L142.1,33.769731983542464L142.58333333333331,22.12500000000002L143.06666666666666,33.769731983542464L143.55,33.769731983542464L144.03333333333333,57.059209138155005L144.51666666666668,57.059209138155005L145,33.769731983542464L145.48333333333335,57.059209138155005L145.96666666666667,33.769731983542464L146.45,45.41447715461256L146.93333333333334,57.059209138155005L147.41666666666666,57.059209138155005L147.9,33.769731983542464L148.38333333333335,45.41447715461256L148.86666666666665,45.41447715461256L149.35,57.059209138155005L149.83333333333334,33.769731983542464L150.31666666666666,45.41447715461256L150.8,22.12500000000002L151.28333333333333,57.059209138155005L151.76666666666665,33.769731983542464L152.25,45.41447715461256L152.73333333333332,45.41447715461256L153.21666666666667,45.41447715461256L153.70000000000002,22.12500000000002L154.1833333333333,22.12500000000002L154.66666666666666,57.059209138155005L155.15,33.769731983542464L155.63333333333333,22.12500000000002L156.11666666666667,57.059209138155005L156.60000000000002,22.12500000000002L157.08333333333331,45.41447715461256L157.56666666666666,33.769731983542464L158.05,45.41447715461256L158.53333333333333,33.769731983542464L159.01666666666668,33.769731983542464L159.5,33.769731983542464L159.98333333333332,33.769731983542464L160.46666666666667,33.769731983542464L160.95000000000002,33.769731983542464L161.43333333333334,33.769731983542464L161.91666666666666,22.12500000000002L162.4,57.059209138155005L162.88333333333333,57.059209138155005L163.36666666666667,22.12500000000002L163.85,57.059209138155005L164.33333333333334,22.12500000000002L164.81666666666666,33.769731983542464L165.29999999999998,22.12500000000002L165.78333333333333,33.769731983542464L166.26666666666668,33.769731983542464L166.75,45.41447715461256L167.23333333333332,22.12500000000002L167.71666666666667,57.059209138155005L168.2,22.12500000000002L168.68333333333334,57.059209138155005L169.16666666666669,22.12500000000002L169.64999999999998,22.12500000000002L170.13333333333333,22.12500000000002L170.61666666666667,22.12500000000002L171.1,33.769731983542464L171.58333333333334,22.12500000000002L172.0666666666667,57.059209138155005L172.54999999999998,45.41447715461256L173.03333333333333,45.41447715461256L173.51666666666668,45.41447715461256L174,22.12500000000002L174.48333333333335,45.41447715461256L174.96666666666667,45.41447715461256L175.45,33.769731983542464L175.93333333333334,22.12500000000002L176.41666666666666,22.12500000000002L176.9,68.70394112169743L177.38333333333335,45.41447715461256L177.86666666666665,33.769731983542464L178.35,33.769731983542464L178.83333333333334,45.41447715461256L179.31666666666666,33.769731983542464L179.8,22.12500000000002L180.28333333333333,45.41447715461256L180.76666666666665,22.12500000000002L181.25,22.12500000000002L181.73333333333335,22.12500000000002L182.21666666666667,45.41447715461256L182.7,33.769731983542464L183.18333333333334,22.12500000000002L183.66666666666666,33.769731983542464L184.15,33.769731983542464L184.63333333333335,33.769731983542464L185.11666666666665,45.41447715461256L185.6,45.41447715461256L186.08333333333334,22.12500000000002L186.56666666666666,57.059209138155005L187.05,33.769731983542464L187.53333333333333,57.059209138155005L188.01666666666665,45.41447715461256L188.5,33.769731983542464L188.98333333333332,22.12500000000002L189.46666666666667,33.769731983542464L189.95000000000002,33.769731983542464L190.4333333333333,68.70394112169743L190.91666666666666,33.769731983542464L191.4,22.12500000000002L191.88333333333333,33.769731983542464L192.36666666666667,45.41447715461256L192.85000000000002,45.41447715461256L193.33333333333331,33.769731983542464L193.81666666666666,33.769731983542464L194.3,22.12500000000002L194.78333333333333,57.059209138155005L195.26666666666668,22.12500000000002L195.75,22.12500000000002L196.23333333333332,45.41447715461256L196.71666666666667,22.12500000000002L197.20000000000002,22.12500000000002L197.68333333333334,33.769731983542464L198.16666666666666,57.059209138155005L198.65,33.769731983542464L199.13333333333333,33.769731983542464L199.61666666666667,22.12500000000002L200.1,33.769731983542464L200.58333333333334,45.41447715461256L201.06666666666666,33.769731983542464L201.54999999999998,22.12500000000002L202.03333333333333,33.769731983542464L202.51666666666668,22.12500000000002L203,33.769731983542464L203.48333333333332,57.059209138155005L203.96666666666667,33.769731983542464L204.45,22.12500000000002L204.93333333333334,33.769731983542464L205.41666666666669,22.12500000000002L205.89999999999998,57.059209138155005L206.38333333333333,22.12500000000002L206.86666666666667,45.41447715461256L207.35,33.769731983542464L207.83333333333334,22.12500000000002L208.3166666666667,33.769731983542464L208.79999999999998,22.12500000000002L209.28333333333333,45.41447715461256L209.76666666666668,33.769731983542464L210.25,45.41447715461256L210.73333333333335,33.769731983542464L211.21666666666667,33.769731983542464L211.7,33.769731983542464L212.18333333333334,22.12500000000002L212.66666666666666,33.769731983542464L213.15,33.769731983542464L213.63333333333335,22.12500000000002L214.11666666666665,45.41447715461256L214.6,33.769731983542464L215.08333333333334,33.769731983542464L215.56666666666666,33.769731983542464L216.05,33.769731983542464L216.53333333333333,33.769731983542464L217.01666666666665,22.12500000000002L217.5,33.769731983542464L217.98333333333335,22.12500000000002L218.46666666666667,57.059209138155005L218.95,68.70394112169743L219.43333333333334,33.769731983542464L219.91666666666666,22.12500000000002L220.4,22.12500000000002L220.88333333333335,33.769731983542464L221.36666666666665,22.12500000000002L221.85,33.769731983542464L222.33333333333334,22.12500000000002L222.81666666666666,22.12500000000002L223.3,33.769731983542464L223.78333333333333,22.12500000000002L224.26666666666665,33.769731983542464L224.75,33.769731983542464L225.23333333333332,22.12500000000002L225.71666666666667,22.12500000000002L226.20000000000002,22.12500000000002L226.6833333333333,57.059209138155005L227.16666666666666,33.769731983542464L227.65,33.769731983542464L228.13333333333333,45.41447715461256L228.61666666666667,22.12500000000002L229.10000000000002,45.41447715461256L229.58333333333331,45.41447715461256L230.06666666666666,33.769731983542464L230.55,45.41447715461256L231.03333333333333,33.769731983542464L231.51666666666668,33.769731983542464L232,22.12500000000002L232.48333333333332,45.41447715461256L232.96666666666667,33.769731983542464L233.45000000000002,22.12500000000002L233.93333333333334,33.769731983542464L234.41666666666666,45.41447715461256L234.9,22.12500000000002L235.38333333333333,33.769731983542464L235.86666666666667,22.12500000000002L236.35,33.769731983542464L236.83333333333334,22.12500000000002L237.31666666666666,33.769731983542464L237.79999999999998,45.41447715461256L238.28333333333333,22.12500000000002L238.76666666666668,45.41447715461256L239.25,22.12500000000002L239.73333333333332,33.769731983542464L240.21666666666667,68.70394112169743L240.7,33.769731983542464L241.18333333333334,22.12500000000002L241.66666666666669,22.12500000000002L242.14999999999998,33.769731983542464L242.63333333333333,33.769731983542464L243.11666666666667,33.769731983542464L243.6,33.769731983542464L244.08333333333334,22.12500000000002L244.5666666666667,22.12500000000002L245.04999999999998,22.12500000000002L245.53333333333333,22.12500000000002L246.01666666666668,22.12500000000002L246.5,22.12500000000002L246.98333333333335,22.12500000000002L247.46666666666667,33.769731983542464L247.95,22.12500000000002L248.43333333333334,33.769731983542464L248.91666666666666,45.41447715461256L249.4,33.769731983542464L249.88333333333335,45.41447715461256L250.36666666666665,45.41447715461256L250.85,22.12500000000002L251.33333333333334,45.41447715461256L251.81666666666666,33.769731983542464L252.3,68.70394112169743L252.78333333333333,33.769731983542464L253.26666666666665,33.769731983542464L253.75,33.769731983542464L254.23333333333335,33.769731983542464L254.71666666666667,22.12500000000002L255.2,22.12500000000002L255.68333333333334,33.769731983542464L256.1666666666667,45.41447715461256L256.65,33.769731983542464L257.1333333333333,33.769731983542464L257.6166666666667,45.41447715461256L258.1,22.12500000000002L258.58333333333337,33.769731983542464L259.06666666666666,45.41447715461256L259.55,45.41447715461256L260.0333333333333,22.12500000000002L260.51666666666665,45.41447715461256L261,33.769731983542464L261.4833333333333,33.769731983542464L261.96666666666664,33.769731983542464L262.45,22.12500000000002L262.93333333333334,33.769731983542464L263.4166666666667,45.41447715461256L263.90000000000003,22.12500000000002L264.3833333333333,22.12500000000002L264.8666666666667,22.12500000000002L265.35,22.12500000000002" style="fill: none;" fill="none"></path></g></g></g></g></g></g><g transform="translate(40, 177)" clip-path="url(#clip_1)"><clipPath id="clip_1"><rect width="290" height="23"></rect></clipPath><g><g><line x1="0" y1="0" x2="0" y2="5" style="visibility: inherit;" fill="rgb(0, 0, 0)" stroke="rgb(204, 204, 204)" stroke-width="1px"></line><line x1="24.166666666666664" y1="0" x2="24.166666666666664" y2="5" style="visibility: inherit;" fill="rgb(0, 0, 0)" stroke="rgb(204, 204, 204)" stroke-width="1px"></line><line x1="48.33333333333333" y1="0" x2="48.33333333333333" y2="5" style="visibility: inherit;" fill="rgb(0, 0, 0)" stroke="rgb(204, 204, 204)" stroke-width="1px"></line><line x1="72.5" y1="0" x2="72.5" y2="5" style="visibility: inherit;" fill="rgb(0, 0, 0)" stroke="rgb(204, 204, 204)" stroke-width="1px"></line><line x1="96.66666666666666" y1="0" x2="96.66666666666666" y2="5" style="visibility: inherit;" fill="rgb(0, 0, 0)" stroke="rgb(204, 204, 204)" stroke-width="1px"></line><line x1="120.83333333333334" y1="0" x2="120.83333333333334" y2="5" style="visibility: inherit;" fill="rgb(0, 0, 0)" stroke="rgb(204, 204, 204)" stroke-width="1px"></line><line x1="145" y1="0" x2="145" y2="5" style="visibility: inherit;" fill="rgb(0, 0, 0)" stroke="rgb(204, 204, 204)" stroke-width="1px"></line><line x1="169.16666666666669" y1="0" x2="169.16666666666669" y2="5" style="visibility: inherit;" fill="rgb(0, 0, 0)" stroke="rgb(204, 204, 204)" stroke-width="1px"></line><line x1="193.33333333333331" y1="0" x2="193.33333333333331" y2="5" style="visibility: inherit;" fill="rgb(0, 0, 0)" stroke="rgb(204, 204, 204)" stroke-width="1px"></line><line x1="217.5" y1="0" x2="217.5" y2="5" style="visibility: inherit;" fill="rgb(0, 0, 0)" stroke="rgb(204, 204, 204)" stroke-width="1px"></line><line x1="241.66666666666669" y1="0" x2="241.66666666666669" y2="5" style="visibility: inherit;" fill="rgb(0, 0, 0)" stroke="rgb(204, 204, 204)" stroke-width="1px"></line><line x1="265.8333333333333" y1="0" x2="265.8333333333333" y2="5" style="visibility: inherit;" fill="rgb(0, 0, 0)" stroke="rgb(204, 204, 204)" stroke-width="1px"></line><line x1="290" y1="0" x2="290" y2="5" style="visibility: inherit;" fill="rgb(0, 0, 0)" stroke="rgb(204, 204, 204)" stroke-width="1px"></line></g><g transform="translate(0, 8)"><text x="0" y="0" dx="0em" dy="0.95em" style="text-anchor: middle; visibility: hidden; font-family: Roboto, sans-serif; font-size: 12px; font-weight: 200;" fill="rgb(33, 33, 33)" stroke="none" stroke-width="1px">-50</text><text x="24.166666666666664" y="0" dx="0em" dy="0.95em" style="text-anchor: middle; visibility: inherit; font-family: Roboto, sans-serif; font-size: 12px; font-weight: 200;" fill="rgb(33, 33, 33)" stroke="none" stroke-width="1px">0</text><text x="48.33333333333333" y="0" dx="0em" dy="0.95em" style="text-anchor: middle; visibility: hidden; font-family: Roboto, sans-serif; font-size: 12px; font-weight: 200;" fill="rgb(33, 33, 33)" stroke="none" stroke-width="1px">50</text><text x="72.5" y="0" dx="0em" dy="0.95em" style="text-anchor: middle; visibility: inherit; font-family: Roboto, sans-serif; font-size: 12px; font-weight: 200;" fill="rgb(33, 33, 33)" stroke="none" stroke-width="1px">100</text><text x="96.66666666666666" y="0" dx="0em" dy="0.95em" style="text-anchor: middle; visibility: hidden; font-family: Roboto, sans-serif; font-size: 12px; font-weight: 200;" fill="rgb(33, 33, 33)" stroke="none" stroke-width="1px">150</text><text x="120.83333333333334" y="0" dx="0em" dy="0.95em" style="text-anchor: middle; visibility: inherit; font-family: Roboto, sans-serif; font-size: 12px; font-weight: 200;" fill="rgb(33, 33, 33)" stroke="none" stroke-width="1px">200</text><text x="145" y="0" dx="0em" dy="0.95em" style="text-anchor: middle; visibility: hidden; font-family: Roboto, sans-serif; font-size: 12px; font-weight: 200;" fill="rgb(33, 33, 33)" stroke="none" stroke-width="1px">250</text><text x="169.16666666666669" y="0" dx="0em" dy="0.95em" style="text-anchor: middle; visibility: inherit; font-family: Roboto, sans-serif; font-size: 12px; font-weight: 200;" fill="rgb(33, 33, 33)" stroke="none" stroke-width="1px">300</text><text x="193.33333333333331" y="0" dx="0em" dy="0.95em" style="text-anchor: middle; visibility: hidden; font-family: Roboto, sans-serif; font-size: 12px; font-weight: 200;" fill="rgb(33, 33, 33)" stroke="none" stroke-width="1px">350</text><text x="217.5" y="0" dx="0em" dy="0.95em" style="text-anchor: middle; visibility: inherit; font-family: Roboto, sans-serif; font-size: 12px; font-weight: 200;" fill="rgb(33, 33, 33)" stroke="none" stroke-width="1px">400</text><text x="241.66666666666669" y="0" dx="0em" dy="0.95em" style="text-anchor: middle; visibility: hidden; font-family: Roboto, sans-serif; font-size: 12px; font-weight: 200;" fill="rgb(33, 33, 33)" stroke="none" stroke-width="1px">450</text><text x="265.8333333333333" y="0" dx="0em" dy="0.95em" style="text-anchor: middle; visibility: inherit; font-family: Roboto, sans-serif; font-size: 12px; font-weight: 200;" fill="rgb(33, 33, 33)" stroke="none" stroke-width="1px">500</text><text x="290" y="0" dx="0em" dy="0.95em" style="text-anchor: middle; visibility: hidden; font-family: Roboto, sans-serif; font-size: 12px; font-weight: 200;" fill="rgb(33, 33, 33)" stroke="none" stroke-width="1px">550</text></g><line x1="0" y1="0" x2="290" y2="0" fill="rgb(0, 0, 0)" stroke="rgb(204, 204, 204)" stroke-width="1px"></line></g></g></g></g></svg>