<svg viewBox="0 0 330 200" xmlns="http://www.w3.org/2000/svg"><g><g><g><g><g><line x1="50" y1="177" x2="45" y2="177" style="visibility: inherit;" fill="rgb(0, 0, 0)" stroke="rgb(204, 204, 204)" stroke-width="1px"></line><line x1="50" y1="159.29999999999998" x2="45" y2="159.29999999999998" style="visibility: inherit;" fill="rgb(0, 0, 0)" stroke="rgb(204, 204, 204)" stroke-width="1px"></line><line x1="50" y1="141.60000000000005" x2="45" y2="141.60000000000005" style="visibility: inherit;" fill="rgb(0, 0, 0)" stroke="rgb(204, 204, 204)" stroke-width="1px"></line><line x1="50" y1="123.90000000000003" x2="45" y2="123.90000000000003" style="visibility: inherit;" fill="rgb(0, 0, 0)" stroke="rgb(204, 204, 204)" stroke-width="1px"></line><line x1="50" y1="106.20000000000002" x2="45" y2="106.20000000000002" style="visibility: inherit;" fill="rgb(0, 0, 0)" stroke="rgb(204, 204, 204)" stroke-width="1px"></line><line x1="50" y1="88.5" x2="45" y2="88.5" style="visibility: inherit;" fill="rgb(0, 0, 0)" stroke="rgb(204, 204, 204)" stroke-width="1px"></line><line x1="50" y1="70.79999999999998" x2="45" y2="70.79999999999998" style="visibility: inherit;" fill="rgb(0, 0, 0)" stroke="rgb(204, 204, 204)" stroke-width="1px"></line><line x1="50" y1="53.099999999999966" x2="45" y2="53.099999999999966" style="visibility: inherit;" fill="rgb(0, 0, 0)" stroke="rgb(204, 204, 204)" stroke-width="1px"></line><line x1="50" y1="35.400000000000034" x2="45" y2="35.400000000000034" style="visibility: inherit;" fill="rgb(0, 0, 0)" stroke="rgb(204, 204, 204)" stroke-width="1px"></line><line x1="50" y1="17.700000000000017" x2="45" y2="17.700000000000017" style="visibility: inherit;" fill="rgb(0, 0, 0)" stroke="rgb(204, 204, 204)" stroke-width="1px"></line><line x1="50" y1="0" x2="45" y2="0" style="visibility: inherit;" fill="rgb(0, 0, 0)" stroke="rgb(204, 204, 204)" stroke-width="1px"></line></g><g transform="translate(40, 0)"><text x="0" y="177" dx="0em" dy="0.3em" style="text-anchor: end; visibility: hidden; font-family: Roboto, sans-serif; font-size: 12px; font-weight: 200;" fill="rgb(33, 33, 33)" stroke="none" stroke-width="1px">0.54</text><text x="0" y="159.29999999999998" dx="0em" dy="0.3em" style="text-anchor: end; visibility: inherit; font-family: Roboto, sans-serif; font-size: 12px; font-weight: 200;" fill="rgb(33, 33, 33)" stroke="none" stroke-width="1px">0.56</text><text x="0" y="141.60000000000005" dx="0em" dy="0.3em" style="text-anchor: end; visibility: hidden; font-family: Roboto, sans-serif; font-size: 12px; font-weight: 200;" fill="rgb(33, 33, 33)" stroke="none" stroke-width="1px">0.58</text><text x="0" y="123.90000000000003" dx="0em" dy="0.3em" style="text-anchor: end; visibility: inherit; font-family: Roboto, sans-serif; font-size: 12px; font-weight: 200;" fill="rgb(33, 33, 33)" stroke="none" stroke-width="1px">0.6</text><text x="0" y="106.20000000000002" dx="0em" dy="0.3em" style="text-anchor: end; visibility: hidden; font-family: Roboto, sans-serif; font-size: 12px; font-weight: 200;" fill="rgb(33, 33, 33)" stroke="none" stroke-width="1px">0.62</text><text x="0" y="88.5" dx="0em" dy="0.3em" style="text-anchor: end; visibility: inherit; font-family: Roboto, sans-serif; font-size: 12px; font-weight: 200;" fill="rgb(33, 33, 33)" stroke="none" stroke-width="1px">0.64</text><text x="0" y="70.79999999999998" dx="0em" dy="0.3em" style="text-anchor: end; visibility: hidden; font-family: Roboto, sans-serif; font-size: 12px; font-weight: 200;" fill="rgb(33, 33, 33)" stroke="none" stroke-width="1px">0.66</text><text x="0" y="53.099999999999966" dx="0em" dy="0.3em" style="text-anchor: end; visibility: inherit; font-family: Roboto, sans-serif; font-size: 12px; font-weight: 200;" fill="rgb(33, 33, 33)" stroke="none" stroke-width="1px">0.68</text><text x="0" y="35.400000000000034" dx="0em" dy="0.3em" style="text-anchor: end; visibility: hidden; font-family: Roboto, sans-serif; font-size: 12px; font-weight: 200;" fill="rgb(33, 33, 33)" stroke="none" stroke-width="1px">0.7</text><text x="0" y="17.700000000000017" dx="0em" dy="0.3em" style="text-anchor: end; visibility: inherit; font-family: Roboto, sans-serif; font-size: 12px; font-weight: 200;" fill="rgb(33, 33, 33)" stroke="none" stroke-width="1px">0.72</text><text x="0" y="0" dx="0em" dy="0.3em" style="text-anchor: end; visibility: hidden; font-family: Roboto, sans-serif; font-size: 12px; font-weight: 200;" fill="rgb(33, 33, 33)" stroke="none" stroke-width="1px">0.74</text></g><line x1="50" y1="0" x2="50" y2="177" fill="rgb(0, 0, 0)" stroke="rgb(204, 204, 204)" stroke-width="1px"></line></g></g><g transform="translate(50, 0)" clip-path="url(#clip_0)"><clipPath id="clip_0"><rect width="280" height="177"></rect></clipPath><g><g><g><line x1="0" y1="0" x2="0" y2="177" fill="rgb(0, 0, 0)" stroke="rgb(66, 66, 66)" stroke-width="1px" opacity="0.25"></line><line x1="23.333333333333332" y1="0" x2="23.333333333333332" y2="177" fill="rgb(0, 0, 0)" stroke="rgb(66, 66, 66)" stroke-width="1px" opacity="0.25"></line><line x1="46.666666666666664" y1="0" x2="46.666666666666664" y2="177" fill="rgb(0, 0, 0)" stroke="rgb(66, 66, 66)" stroke-width="1px" opacity="0.25"></line><line x1="70" y1="0" x2="70" y2="177" fill="rgb(0, 0, 0)" stroke="rgb(66, 66, 66)" stroke-width="1px" opacity="0.25"></line><line x1="93.33333333333333" y1="0" x2="93.33333333333333" y2="177" fill="rgb(0, 0, 0)" stroke="rgb(66, 66, 66)" stroke-width="1px" opacity="0.25"></line><line x1="116.66666666666667" y1="0" x2="116.66666666666667" y2="177" fill="rgb(0, 0, 0)" stroke="rgb(66, 66, 66)" stroke-width="1px" opacity="0.25"></line><line x1="140" y1="0" x2="140" y2="177" fill="rgb(0, 0, 0)" stroke="rgb(66, 66, 66)" stroke-width="1px" opacity="0.25"></line><line x1="163.33333333333334" y1="0" x2="163.33333333333334" y2="177" fill="rgb(0, 0, 0)" stroke="rgb(66, 66, 66)" stroke-width="1px" opacity="0.25"></line><line x1="186.66666666666666" y1="0" x2="186.66666666666666" y2="177" fill="rgb(0, 0, 0)" stroke="rgb(66, 66, 66)" stroke-width="1px" opacity="0.25"></line><line x1="210" y1="0" x2="210" y2="177" fill="rgb(0, 0, 0)" stroke="rgb(66, 66, 66)" stroke-width="1px" opacity="0.25"></line><line x1="233.33333333333334" y1="0" x2="233.33333333333334" y2="177" fill="rgb(0, 0, 0)" stroke="rgb(66, 66, 66)" stroke-width="1px" opacity="0.25"></line><line x1="256.66666666666663" y1="0" x2="256.66666666666663" y2="177" fill="rgb(0, 0, 0)" stroke="rgb(66, 66, 66)" stroke-width="1px" opacity="0.25"></line><line x1="280" y1="0" x2="280" y2="177" fill="rgb(0, 0, 0)" stroke="rgb(66, 66, 66)" stroke-width="1px" opacity="0.25"></line></g><g><line x1="0" y1="177" x2="280" y2="177" fill="rgb(0, 0, 0)" stroke="rgb(66, 66, 66)" stroke-width="1px" opacity="0.25"></line><line x1="0" y1="159.29999999999998" x2="280" y2="159.29999999999998" fill="rgb(0, 0, 0)" stroke="rgb(66, 66, 66)" stroke-width="1px" opacity="0.25"></line><line x1="0" y1="141.60000000000005" x2="280" y2="141.60000000000005" fill="rgb(0, 0, 0)" stroke="rgb(66, 66, 66)" stroke-width="1px" opacity="0.25"></line><line x1="0" y1="123.90000000000003" x2="280" y2="123.90000000000003" fill="rgb(0, 0, 0)" stroke="rgb(66, 66, 66)" stroke-width="1px" opacity="0.25"></line><line x1="0" y1="106.20000000000002" x2="280" y2="106.20000000000002" fill="rgb(0, 0, 0)" stroke="rgb(66, 66, 66)" stroke-width="1px" opacity="0.25"></line><line x1="0" y1="88.5" x2="280" y2="88.5" fill="rgb(0, 0, 0)" stroke="rgb(66, 66, 66)" stroke-width="1px" opacity="0.25"></line><line x1="0" y1="70.79999999999998" x2="280" y2="70.79999999999998" fill="rgb(0, 0, 0)" stroke="rgb(66, 66, 66)" stroke-width="1px" opacity="0.25"></line><line x1="0" y1="53.099999999999966" x2="280" y2="53.099999999999966" fill="rgb(0, 0, 0)" stroke="rgb(66, 66, 66)" stroke-width="1px" opacity="0.25"></line><line x1="0" y1="35.400000000000034" x2="280" y2="35.400000000000034" fill="rgb(0, 0, 0)" stroke="rgb(66, 66, 66)" stroke-width="1px" opacity="0.25"></line><line x1="0" y1="17.700000000000017" x2="280" y2="17.700000000000017" fill="rgb(0, 0, 0)" stroke="rgb(66, 66, 66)" stroke-width="1px" opacity="0.25"></line><line x1="0" y1="0" x2="280" y2="0" fill="rgb(0, 0, 0)" stroke="rgb(66, 66, 66)" stroke-width="1px" opacity="0.25"></line></g></g></g><g><g><line x1="0" y1="654.9000000000001" x2="280" y2="654.9000000000001" fill="rgb(0, 0, 0)" stroke="rgb(153, 153, 153)" stroke-width="1.5px"></line></g></g><g><g><line x1="23.333333333333332" y1="0" x2="23.333333333333332" y2="177" fill="rgb(0, 0, 0)" stroke="rgb(153, 153, 153)" stroke-width="1.5px"></line></g></g><g><g><g><g><g><path stroke="rgb(51, 187, 238)" stroke-width="2px" d="M23.333333333333332,42.99444397687911L23.8,36.69944358766068L24.266666666666666,41.09431501748615L24.733333333333334,41.681022463213075L25.2,37.120959664011636L25.666666666666664,30.859704628836475L26.133333333333333,25.415320581104716L26.6,24.096161465197024L27.066666666666666,32.42919156043266L27.53333333333333,29.051640463745066L28,30.14231287924507L28.46666666666667,33.12392599915656L28.933333333333334,35.59250952185835L29.4,30.891359326142517L29.866666666666667,32.62741964212542L30.333333333333336,38.07122344971547L30.8,32.028603846710325L31.266666666666666,37.14528897967837L31.73333333333333,35.98636642148734L32.2,45.74089946217694L32.666666666666664,53.87815394340058L33.13333333333333,51.49540382766888L33.6,49.51337030919733L34.06666666666667,54.03689766558387L34.53333333333333,53.24179982534491L35,41.639535358876266L35.46666666666667,41.82974016305025L35.93333333333333,39.938196983066035L36.4,38.45495215966289L36.86666666666666,52.462800652180775L37.333333333333336,64.1360527540229L37.800000000000004,71.63627610442603L38.266666666666666,62.484828150994694L38.733333333333334,65.93820537252819L39.2,67.64501096991445L39.666666666666664,60.108363167916416L40.13333333333333,59.738926570796245L40.599999999999994,51.61814651882243L41.06666666666667,50.80471512849065L41.53333333333334,56.7089780098145L42,49.340133141683864L42.46666666666667,46.9844361575278L42.93333333333333,45.75311134969392L43.4,59.17818537178877L43.86666666666667,58.45696177727387L44.33333333333333,63.67908168018499L44.800000000000004,54.317202816735964L45.266666666666666,63.058296910918074L45.733333333333334,67.10352135186653L46.2,67.90591040901144L46.666666666666664,63.89763422756527L47.13333333333333,59.045759687106354L47.6,54.363623848716465L48.06666666666666,61.069344000322715L48.53333333333333,55.90066841381645L49,61.31907012902619L49.46666666666667,59.24787819649484L49.93333333333334,59.62815734067986L50.4,57.97517148208263L50.86666666666667,67.1149038145049L51.33333333333333,61.83326853687167L51.8,63.76285986289142L52.266666666666666,70.89302438369248L52.733333333333334,67.64830321950228L53.2,69.62527694989764L53.66666666666667,72.29747400456375L54.13333333333333,68.92377709969114L54.6,65.07765453591489L55.06666666666666,66.25186809977613L55.53333333333333,63.63381447005705L56,62.604936928799425L56.46666666666667,68.96651334002651L56.93333333333334,65.3248889448347L57.4,64.67506912720822L57.86666666666667,65.15331745727434L58.333333333333336,69.54422506203395L58.8,77.90373913115347L59.266666666666666,64.84390476504622L59.733333333333334,67.31841416811737L60.199999999999996,63.85714283738013L60.66666666666667,66.09118237944534L61.13333333333333,74.67075698645168L61.6,80.38898364705598L62.06666666666667,77.63144546510435L62.53333333333333,72.7474974832633L63,76.2154006124555L63.46666666666666,67.95657220608109L63.93333333333333,75.36697719529937L64.4,79.66277687332435L64.86666666666666,72.66383279670121L65.33333333333333,72.80151714628248L65.8,77.62191059199168L66.26666666666667,78.76398238901609L66.73333333333333,77.02727798798271L67.2,70.8622279034769L67.66666666666667,68.06967685381856L68.13333333333334,69.2917520008104L68.6,70.78396568069557L69.06666666666666,67.0619079051596L69.53333333333333,74.62255417932161L70,80.07472606437854L70.46666666666667,78.365870151147L70.93333333333334,75.70365737034366L71.4,77.97766032071993L71.86666666666666,75.60423145206022L72.33333333333334,73.45106210178885L72.8,65.92428731600488L73.26666666666667,78.43770945835139L73.73333333333332,70.5473935506822L74.2,71.26302893531803L74.66666666666667,83.29215949280554L75.13333333333333,86.55226122798612L75.60000000000001,92.54233422912414L76.06666666666666,94.0249177017048L76.53333333333333,93.85895917166673L77,92.27676834433917L77.46666666666667,100.88649129491833L77.93333333333334,95.646036441456L78.4,93.0968269773309L78.86666666666667,67.07261862921628L79.33333333333333,60.04771063427881L79.8,61.124720235471464L80.26666666666667,66.96898519742759L80.73333333333333,64.77140041201277L81.19999999999999,63.38144699102025L81.66666666666667,64.72618110755317L82.13333333333334,80.98471058237092L82.6,66.98497644917693L83.06666666666668,75.39687052641227L83.53333333333333,74.89674203916744L84,87.03982524230689L84.46666666666667,85.6137411937392L84.93333333333334,91.71680095823265L85.39999999999999,98.1305678882102L85.86666666666666,97.80692729699017L86.33333333333334,84.37987129060862L86.8,86.68496211629174L87.26666666666667,85.83839603579678L87.73333333333333,85.586885225276L88.2,94.43373390883202L88.66666666666666,99.96037627726786L89.13333333333334,98.677227253139L89.60000000000001,92.5878689828038L90.06666666666666,88.21339210882897L90.53333333333333,91.14095052847337L91,86.84261688213985L91.46666666666667,89.18718541992567L91.93333333333332,87.35399364789053L92.4,91.04368312930893L92.86666666666666,92.48169039115805L93.33333333333333,85.18379943386019L93.80000000000001,88.62938326844757L94.26666666666667,73.31749222188698L94.73333333333333,89.39772388404313L95.2,87.7030487934691L95.66666666666667,93.75471636294981L96.13333333333333,94.01190422916206L96.6,90.77468023624301L97.06666666666666,82.05767023281022L97.53333333333333,75.77360142061575L98,82.49931384557162L98.46666666666667,76.60723378082317L98.93333333333334,77.67038168561582L99.39999999999999,90.66521594317031L99.86666666666667,86.92492880219972L100.33333333333333,85.40472013589599L100.8,88.58534941933671L101.26666666666668,99.62415923751661L101.73333333333333,91.9741091947393L102.2,89.36033041361789L102.66666666666666,92.80123475005522L103.13333333333334,97.27468500381886L103.6,95.86676027444705L104.06666666666666,95.72039580147094L104.53333333333333,79.33954494834319L105,82.8451230003856L105.46666666666667,92.90871472563873L105.93333333333334,100.63959971074185L106.4,96.8610909497971L106.86666666666666,95.36812521673646L107.33333333333334,104.26422221217993L107.8,102.15278408738642L108.26666666666667,92.73535391934321L108.73333333333332,94.38051041869883L109.2,90.9606701761995L109.66666666666667,95.49814104977335L110.13333333333333,92.71775313343454L110.60000000000001,94.20659340456642L111.06666666666666,100.8719201721878L111.53333333333333,99.61121280182189L112,95.62221940033909L112.46666666666667,91.92251961990168L112.93333333333334,88.8547100732564L113.4,92.02064284502497L113.86666666666667,87.59525324355982L114.33333333333333,97.76080727011811L114.8,92.59303255695616L115.26666666666667,94.23418067347117L115.73333333333333,94.30817053348484L116.19999999999999,104.3535001232068L116.66666666666667,95.9603157349729L117.13333333333334,93.2722914259615L117.6,91.67707427745957L118.06666666666668,98.20699929002465L118.53333333333333,89.83816643001755L119,101.20130427504851L119.46666666666667,104.14764536276627L119.93333333333334,112.64822093519666L120.39999999999999,103.8562338440006L120.86666666666666,110.50370599319854L121.33333333333334,109.45178961211631L121.8,112.62130635413041L122.26666666666667,100.81910735984148L122.73333333333333,96.99964380395112L123.2,102.89735704500495L123.66666666666666,106.50930764340762L124.13333333333334,105.29004750051148L124.60000000000001,99.8726357877138L125.06666666666666,104.53968496441139L125.53333333333333,105.17998734068446L126,106.1498004946206L126.46666666666667,110.09782064635114L126.93333333333332,102.03242875503638L127.4,98.3314777074286L127.86666666666666,101.52800583946873L128.33333333333331,102.40037332599265L128.8,112.09461155071799L129.26666666666668,106.65174887260761L129.73333333333332,110.93621789980511L130.20000000000002,100.82718642454496L130.66666666666666,110.3661997646162L131.13333333333333,112.472110682134L131.6,117.83039512002713L132.06666666666666,120.20094201185856L132.53333333333333,123.08525001298516L133,113.16413717801052L133.46666666666667,115.31899267992182L133.93333333333334,112.93771307564265L134.4,102.00409277973469L134.86666666666667,94.96537159858876L135.33333333333334,93.03503849851327L135.79999999999998,103.22235353199979L136.26666666666668,94.04377258424968L136.73333333333335,107.55396729829907L137.2,121.07338487936856L137.66666666666666,132.0691371764767L138.13333333333333,129.65226985013652L138.6,127.30039686319932L139.06666666666666,113.29465665792053L139.53333333333333,119.69789428695813L140,109.69531712999809L140.46666666666667,99.74719745916639L140.93333333333334,102.29369161488124L141.4,102.703433463344L141.86666666666667,103.19612799010815L142.33333333333331,105.0370908470282L142.8,105.95537627049258L143.26666666666668,112.4020374888657L143.73333333333332,118.06191327777385L144.20000000000002,114.48254392270375L144.66666666666669,119.12135064199045L145.13333333333333,120.6538873505263L145.6,118.93628364513326L146.06666666666666,108.61938094681501L146.53333333333333,114.66764479390382L147,114.18884648747209L147.46666666666664,117.77443842570169L147.93333333333334,117.18483454036821L148.4,125.1156458833701L148.86666666666665,126.47063225143474L149.33333333333334,118.09381629963713L149.8,107.20123922550671L150.26666666666665,113.02789240672591L150.73333333333332,106.38946976181504L151.20000000000002,113.61623668382549L151.66666666666666,114.17796312159295L152.13333333333333,118.7481531619191L152.60000000000002,119.94981625551942L153.06666666666666,123.14749510571345L153.53333333333333,121.37059846571076L154,120.28506954104297L154.46666666666667,124.04718514198423L154.93333333333334,128.0673842997215L155.4,127.04954390113723L155.86666666666667,124.39705167999963L156.33333333333334,129.01424436802327L156.8,122.27363063475288L157.26666666666665,123.10170571315761L157.73333333333335,127.84875377362061L158.2,130.48499046531376L158.66666666666666,126.03188772420324L159.13333333333333,122.72573764932295L159.6,128.55876999743074L160.06666666666666,130.93484324960284L160.53333333333333,120.53015659063084L161,125.30895270949028L161.46666666666667,128.08130128172294L161.93333333333334,122.89306185595545L162.39999999999998,127.23809764118414L162.86666666666667,131.9907826121534L163.33333333333334,127.01309557532583L163.79999999999998,131.28645997867184L164.26666666666668,124.61769005790477L164.73333333333335,128.62547740182353L165.2,121.67666899228732L165.66666666666666,128.252264980463L166.13333333333335,134.1213136076855L166.6,125.70127824067633L167.06666666666666,129.5104738039944L167.53333333333336,126.10153229970781L168,134.82176867448717L168.46666666666667,128.33595872475763L168.93333333333334,125.63407214971814L169.4,120.28274778182762L169.86666666666667,122.62932501587545L170.33333333333331,118.10328481169512L170.79999999999998,116.60943765146716L171.26666666666668,110.72206158818713L171.73333333333332,118.46294649232574L172.2,122.0611262404272L172.66666666666669,129.35194465180334L173.13333333333333,126.63580802834095L173.6,123.18128872726001L174.06666666666666,127.78216244228868L174.53333333333333,134.23042580514075L175,134.4007992662723L175.46666666666667,129.06003482805102L175.93333333333334,124.73995352546221L176.4,122.77999876952077L176.86666666666667,124.47215493092482L177.33333333333331,132.24689000349966L177.8,132.78707329691483L178.26666666666668,127.74980972922464L178.73333333333332,123.83293631265538L179.20000000000002,119.83901331537953L179.66666666666669,127.6876172024846L180.13333333333333,130.29838013403656L180.6,130.8930753550115L181.06666666666666,123.77256430632968L181.53333333333333,126.13489229111137L182,123.90567393438974L182.46666666666664,131.384353309494L182.93333333333334,136.603943470491L183.4,130.85211473666016L183.86666666666665,124.90998847223749L184.33333333333334,132.4425130876149L184.8,130.27282852841884L185.26666666666665,133.93507750340385L185.73333333333332,133.07979908649972L186.20000000000002,129.26249170699623L186.66666666666666,131.94829951524085L187.13333333333333,133.88409188031767L187.60000000000002,132.15657034063105L188.06666666666666,124.20084650602197L188.53333333333333,127.35653453401484L189,132.41573469002108L189.46666666666667,130.56499093627372L189.93333333333334,134.31076206836366L190.4,131.46853537364757L190.86666666666667,129.28131654622536L191.33333333333334,121.4536713860177L191.8,130.19857207904715L192.26666666666665,118.76725681764158L192.73333333333335,125.80681360806386L193.2,128.87004524854046L193.66666666666666,128.45654621116657L194.13333333333333,124.76698737139905L194.6,131.87689742085584L195.06666666666666,123.47416588209423L195.53333333333333,139.31787825907676L196,137.25362211993584L196.46666666666667,133.58563044149426L196.93333333333334,127.51147921132299L197.39999999999998,130.73026316670928L197.86666666666667,132.3829707557461L198.33333333333334,134.94996681299816L198.79999999999998,128.94924073271162L199.26666666666668,136.96165753872515L199.73333333333335,136.34780995292257L200.2,133.92463139201882L200.66666666666666,138.39143887225197L201.13333333333335,133.50074308313967L201.6,136.53964263676426L202.06666666666666,139.22504577683694L202.53333333333336,144.5920322373348L203,138.84725841253024L203.46666666666667,137.29562119227063L203.93333333333334,137.76506989706408L204.4,133.4959026760391L204.86666666666667,142.79058050790618L205.33333333333331,135.873354704852L205.79999999999998,136.40431724052138L206.26666666666668,129.56795415675938L206.73333333333332,125.5589976012487L207.2,134.35833796619056L207.66666666666669,137.6197651526849L208.13333333333333,145.41548900970943L208.6,144.24776796560954L209.06666666666666,152.90230415857715L209.53333333333333,146.9011358988099L210,140.12293707918002L210.46666666666667,149.8019792150908L210.93333333333334,146.30230157801228L211.4,137.45290734069772L211.86666666666667,140.6694610792234L212.33333333333331,136.81458409058058L212.8,139.00204413549304L213.26666666666668,134.64019076237796L213.73333333333332,135.8370594370944L214.20000000000002,138.61260375670088L214.66666666666669,134.88714334304035L215.13333333333333,135.177500191539L215.6,137.99822955084417L216.06666666666666,138.75163079710353L216.53333333333333,133.1459754408094L217,130.63255530957545L217.46666666666664,133.84656653382874L217.93333333333334,142.10538744436795L218.4,152.44378658000883L218.86666666666665,150.4897599545971L219.33333333333334,144.03047469185915L219.8,144.88656735734423L220.26666666666665,145.64331656644515L220.73333333333332,150.0898742648946L221.20000000000002,140.85664542514004L221.66666666666666,140.19845655916885L222.13333333333333,139.48980668162554L222.60000000000002,139.68989546641853L223.06666666666666,149.12983828273508L223.53333333333333,146.3980541651672L224,143.21055694730435L224.46666666666667,141.50133644289588L224.93333333333334,131.94505624977833L225.4,135.03068462972692L225.86666666666667,138.92292123773603L226.33333333333334,141.60622403227634L226.8,138.25237809898465L227.26666666666665,139.24651034404042L227.73333333333335,146.0494411070896L228.2,148.1870203876348L228.66666666666666,148.14591998004033L229.13333333333333,137.3231010898538L229.6,136.97903875259087L230.06666666666666,136.9611302456112L230.53333333333333,132.42858235841103L231,138.87113594058223L231.46666666666667,133.0592804947083L231.93333333333334,127.37687642327454L232.39999999999998,135.48166482777302L232.86666666666667,129.7314899130518L233.33333333333334,136.8106868460092L233.79999999999998,137.76128089155628L234.26666666666668,128.05300396279029L234.73333333333335,131.01964554307182L235.2,129.37456580828024L235.66666666666666,128.98279241580002L236.13333333333335,131.3283692923679L236.6,137.11783590838286L237.06666666666666,139.7653225453197L237.53333333333336,142.66376857468484L238,144.49671028917433L238.46666666666667,145.48975129404906L238.93333333333334,145.63004704165013L239.4,157.77790048985221L239.86666666666667,153.68271668474995L240.33333333333331,148.31859000516607L240.79999999999998,155.8006638383429L241.26666666666668,152.92246898743878L241.73333333333332,151.70866295297967L242.2,142.93940566897405L242.66666666666669,136.81144128155714L243.13333333333333,143.29519905753142L243.6,138.6628082496357L244.06666666666666,137.42658880129054L244.53333333333333,133.5391570351994L245,146.29426351681204L245.46666666666667,138.4396810835293L245.93333333333334,139.53744070921488L246.4,139.13757056471198L246.86666666666667,137.80445518539244L247.33333333333331,139.79846391705206L247.8,137.92485491769034L248.26666666666668,138.71482223234483L248.73333333333332,140.54099895693005L249.20000000000002,137.70945925555915L249.66666666666669,139.46750338460382L250.13333333333333,137.76710718384615L250.6,145.6983100361301L251.06666666666666,138.77596285025317L251.53333333333333,139.34854244995145L252,147.81856125240347L252.46666666666664,147.8519860461045L252.93333333333334,143.22889178482825L253.4,137.757099170018L253.86666666666665,142.91220559747742L254.33333333333334,134.22973565859633L254.8,134.60665921093843L255.26666666666665,139.85776778055322L255.73333333333332,153.69596403594664L256.2,153.09194120976838" style="fill: none;" fill="none"></path></g></g></g></g><g opacity="0.2"><g><g><g><path stroke="rgb(51, 187, 238)" stroke-width="2px" d="M23.333333333333332,42.99444397687911L23.8,32.92244335412978L24.266666666666666,45.31339159011842L24.733333333333334,42.37099041938781L25.2,31.167341673374167L25.666666666666664,22.19813486337661L26.133333333333333,17.62976428270339L26.6,22.172814810276023L27.066666666666666,44.71879234313966L27.53333333333333,24.036370718479148L28,31.768429183959952L28.46666666666667,37.58011987209319L28.933333333333334,39.2873244524002L29.4,23.848844075202933L29.866666666666667,35.229469442367545L30.333333333333336,46.23308976888658L30.8,22.967231476306907L31.266666666666666,44.81901755332948L31.73333333333333,34.24815913438796L32.2,60.37180742025377L32.666666666666664,66.08358939886094L33.13333333333333,47.92135705947877L33.6,46.540359163284315L34.06666666666667,60.82213511466981L34.53333333333333,52.049158716201795L35,24.236188137531272L35.46666666666667,42.115046882629386L35.93333333333333,37.10088511705398L36.4,36.230086290836326L36.86666666666666,73.4745656490326L37.333333333333336,81.64592703580857L37.800000000000004,82.88660963773728L38.266666666666666,48.757657313346876L38.733333333333334,71.11827095746995L39.2,70.20521929264069L39.666666666666664,48.80339165925981L40.13333333333333,59.18477168083192L40.599999999999994,39.43697651624679L41.06666666666667,49.58456804752351L41.53333333333334,65.56537231206894L42,38.2868658542633L42.46666666666667,43.4508906841278L42.93333333333333,43.906124138832084L43.4,79.31579639911652L43.86666666666667,57.375126385688795L44.33333333333333,71.51226153373719L44.800000000000004,40.27438452243804L45.266666666666666,76.1699380517006L45.733333333333334,73.17135801315308L46.2,69.10949399471284L46.666666666666664,57.88521995544435L47.13333333333333,51.76794787645341L47.6,47.340420091152204L48.06666666666666,71.12792422771454L48.53333333333333,48.14765503406526L49,69.44667270183564L49.46666666666667,56.14109029769899L49.93333333333334,60.19857605695726L50.4,55.49569269418718L50.86666666666667,80.82450231313706L51.33333333333333,53.910815620422376L51.8,66.65724685192109L52.266666666666666,81.58827116489411L52.733333333333334,62.78122147321702L53.2,72.59073754549027L53.66666666666667,76.30576958656312L54.13333333333333,63.86323174238206L54.6,59.30847069025041L55.06666666666666,68.01318844556809L55.53333333333333,59.706734025478376L56,61.061620616912855L56.46666666666667,78.50887795686722L56.93333333333334,59.86245235204698L57.4,63.70033940076829L57.86666666666667,65.87068995237351L58.333333333333336,76.13058646917344L58.8,90.44301023483277L59.266666666666666,45.254153215885175L59.733333333333334,71.03017827272416L60.199999999999996,58.665235841274274L60.66666666666667,69.44224169254304L61.13333333333333,87.54011889696122L61.6,88.96632363796235L62.06666666666667,73.49513819217682L62.53333333333333,65.42157551050187L63,81.4172553062439L63.46666666666666,55.56832959651948L63.93333333333333,86.48258467912675L64.4,86.10647639036179L64.86666666666666,62.16541668176652L65.33333333333333,73.0080436706543L65.8,84.85250076055527L66.26666666666667,80.47709008455277L66.73333333333333,74.42222138643265L67.2,61.61465277671815L67.66666666666667,63.88085027933122L68.13333333333334,71.12486472129822L68.6,73.02228620052338L69.06666666666666,61.478821241855634L69.53333333333333,85.96352359056473L70,88.25298389196396L70.46666666666667,75.8025862812996L70.93333333333334,71.71033819913865L71.4,81.38866474628449L71.86666666666666,72.04408814907075L72.33333333333334,70.22130807638169L72.8,54.634125137329114L73.26666666666667,97.20784267187119L73.73333333333332,58.71191968917848L74.2,72.33648201227189L74.66666666666667,101.33585532903672L75.13333333333333,91.44241383075715L75.60000000000001,101.52744373083115L76.06666666666666,96.24879291057587L76.53333333333333,93.61002137660981L77,89.90348210334778L77.46666666666667,113.80107572078708L77.93333333333334,87.78535416126252L78.4,89.2730127811432L78.86666666666667,28.03630610704421L79.33333333333333,49.51034864187242L79.8,62.74023463726045L80.26666666666667,75.73538264036179L80.73333333333333,61.475023233890546L81.19999999999999,61.296516859531415L81.66666666666667,66.74328228235245L82.13333333333334,105.37250479459763L82.6,45.98537524938585L83.06666666666668,88.01471164226533L83.53333333333333,74.14654930830002L84,105.25445004701615L84.46666666666667,83.47461512088776L84.93333333333334,100.87139060497285L85.39999999999999,107.75121828317643L85.86666666666666,97.32146641016007L86.33333333333334,64.23928728103638L86.8,90.14259835481644L87.26666666666667,84.56854691505433L87.73333333333333,85.20961900949479L88.2,107.70400693416596L88.66666666666666,108.25033982992173L89.13333333333334,96.75250371694565L89.60000000000001,83.45383157730103L90.06666666666666,81.65167679786683L90.53333333333333,95.53228815793992L91,80.39511641263962L91.46666666666667,92.70403822660447L91.93333333333332,84.60420598983765L92.4,96.57821735143662L92.86666666666666,94.63870128393174L93.33333333333333,74.23696299791337L93.80000000000001,93.79775902032853L94.26666666666667,50.349655652046216L94.73333333333333,113.51807137727741L95.2,85.16103615760804L95.66666666666667,102.83221771717072L96.13333333333333,94.39768602848054L96.6,85.91884424686432L97.06666666666666,68.98215522766114L97.53333333333333,66.34749820232392L98,92.58788248300553L98.46666666666667,67.76911368370057L98.93333333333334,79.26510354280472L99.39999999999999,110.15746732950211L99.86666666666667,81.31449809074402L100.33333333333333,83.12440713644028L100.8,93.35629334449769L101.26666666666668,116.18237396478656L101.73333333333333,80.49903413057328L102.2,85.43966224193574L102.66666666666666,97.96259125471116L103.13333333333334,103.98486038446427L103.6,93.75487318038941L104.06666666666666,95.50084909200669L104.53333333333333,54.768268668651594L105,88.10349007844925L105.46666666666667,108.00410231351853L105.93333333333334,112.23592718839649L106.4,91.19332780838013L106.86666666666666,93.12867661714554L107.33333333333334,117.60836770534519L107.8,98.98562690019608L108.26666666666667,78.6092086672783L108.73333333333332,96.84824516773224L109.2,85.83090981245041L109.66666666666667,102.30434736013413L110.13333333333333,88.5471712589264L110.60000000000001,96.43985381126404L111.06666666666666,110.86991032361988L111.53333333333333,97.72015174627305L112,89.63872929811478L112.46666666666667,86.37296994924546L112.93333333333334,84.25299575328827L113.4,96.76954200267792L113.86666666666667,80.957168841362L114.33333333333333,113.00913830995563L114.8,84.84137048721314L115.26666666666667,96.69590284824372L115.73333333333333,94.41915532350541L116.19999999999999,119.42149450778965L116.66666666666667,83.37053915262223L117.13333333333334,89.24025496244431L117.6,89.28424855470658L118.06666666666668,108.00188680887223L118.53333333333333,77.28491714000702L119,118.24601104259494L119.46666666666667,108.56715699434281L119.93333333333334,125.39908429384235L120.39999999999999,90.66825320720673L120.86666666666666,120.47491421699527L121.33333333333334,107.87391504049302L121.8,117.37558146715168L122.26666666666667,83.11580886840821L122.73333333333333,91.27044847011567L123.2,111.74392690658573L123.66666666666666,111.92723354101184L124.13333333333334,103.46115728616715L124.60000000000001,91.74651821851731L125.06666666666666,111.54025872945789L125.53333333333333,106.14044090509415L126,107.60452022552491L126.46666666666667,116.01985087394718L126.93333333333332,89.93434091806412L127.4,92.78005113601685L127.86666666666666,106.322798037529L128.33333333333331,103.70892455577851L128.8,126.63596888780597L129.26666666666668,98.48745485544205L129.73333333333332,117.36292144060138L130.20000000000002,85.66363921165467L130.66666666666666,124.67471977472309L131.13333333333333,115.63097705841068L131.6,125.86782177686695L132.06666666666666,123.7567623496056L132.53333333333333,127.41171201467517L133,98.28246792554856L133.46666666666667,118.55127593278888L133.93333333333334,109.36579366922379L134.4,85.60366233587266L134.86666666666667,84.40728982686997L135.33333333333334,90.13953884840012L135.79999999999998,118.50332608222965L136.26666666666668,80.27590116262436L136.73333333333335,127.81925936937336L137.2,141.35251125097278L137.66666666666666,148.562765622139L138.13333333333333,126.02696886062625L138.6,123.77258738279346L139.06666666666666,92.2860463500023L139.53333333333333,129.30275073051456L140,94.69145139455796L140.46666666666667,84.82501795291901L140.93333333333334,106.11343284845353L141.4,103.31804623603821L141.86666666666667,103.93516978025437L142.33333333333331,107.79853513240815L142.8,107.33280440568925L143.26666666666668,122.07202931642536L143.73333333333332,126.5517269611359L144.20000000000002,109.11348989009858L144.66666666666669,126.0795607209206L145.13333333333333,122.95269241333011L145.6,116.3598780870438L146.06666666666666,93.14402689933777L146.53333333333333,123.74004056453708L147,113.47064902782444L147.46666666666664,123.152826333046L147.93333333333334,116.30042871236805L148.4,137.01186289787296L148.86666666666665,128.50311180353168L149.33333333333334,105.52859237194062L149.8,90.86237361431122L150.26666666666665,121.76787217855457L150.73333333333332,96.43183579444886L151.20000000000002,124.45638706684116L151.66666666666666,115.02055277824405L152.13333333333333,125.60343822240833L152.60000000000002,121.75231089591983L153.06666666666666,127.94401338100437L153.53333333333333,118.70525350570682L154,118.65677615404132L154.46666666666667,129.69035854339603L154.93333333333334,134.0976830363274L155.4,125.52278330326084L155.86666666666667,120.41831334829334L156.33333333333334,135.94003340005878L156.8,112.1627100348473L157.26666666666665,124.3438183307648L157.73333333333335,134.96932586431507L158.2,134.43934550285343L158.66666666666666,119.35223361253742L159.13333333333333,117.7665125370026L159.6,137.30831851959232L160.06666666666666,134.49895312786106L160.53333333333333,104.92312660217286L161,132.47714688777927L161.46666666666667,132.2398241400719L161.93333333333334,115.11070271730426L162.39999999999998,133.75565131902698L162.86666666666667,139.11981006860736L163.33333333333334,119.54656502008442L163.79999999999998,137.69650658369068L164.26666666666668,114.61453517675403L164.73333333333335,134.63715841770176L165.2,111.25345637798313L165.66666666666666,138.11565896272663L166.13333333333335,142.92488654851917L166.6,113.07122519016269L167.06666666666666,135.2242671489716L167.53333333333336,120.98812004327777L168,147.90212323665622L168.46666666666667,118.6072438001633L168.93333333333334,121.581242287159L169.4,112.25576122999195L169.86666666666667,126.14919086694721L170.33333333333331,111.31422450542453L170.79999999999998,114.36866691112522L171.26666666666668,101.89099749326707L171.73333333333332,130.07427384853366L172.2,127.45839586257938L172.66666666666669,140.28817226886753L173.13333333333333,122.56160309314731L173.6,117.99950977563861L174.06666666666666,134.68347301483158L174.53333333333333,143.90282084941867L175,134.6563594579697L175.46666666666667,121.04888817071918L175.93333333333334,118.25983157157901L176.4,119.84006663560871L176.86666666666667,127.01038917303089L177.33333333333331,143.90899261236194L177.8,133.5973482370377L178.26666666666668,120.1939143776894L178.73333333333332,117.9576261878014L179.20000000000002,113.84812881946567L179.66666666666669,139.46052303314212L180.13333333333333,134.21452453136448L180.6,131.78511818647388L181.06666666666666,113.09179773330692L181.53333333333333,129.67838426828388L182,120.56184639930729L182.46666666666664,142.60237237215046L182.93333333333334,144.43332871198658L183.4,122.22437163591388L183.86666666666665,115.99679907560352L184.33333333333334,143.7413000106812L184.8,127.01830168962482L185.26666666666665,139.42845096588138L185.73333333333332,131.79688146114353L186.20000000000002,123.53653063774112L186.66666666666666,135.97701122760776L187.13333333333333,136.78778042793277L187.60000000000002,129.56528803110126L188.06666666666666,112.26726075410846L188.53333333333333,132.09006657600406L189,140.00453492403034L189.46666666666667,127.78887530565265L189.93333333333334,139.9294187664986L190.4,127.20519533157352L190.86666666666667,126.00048830509189L191.33333333333334,109.71220364570618L191.8,143.31592311859134L192.26666666666665,101.6202839255333L192.73333333333335,136.3661487936974L193.2,133.46489270925525L193.66666666666666,127.83629765510562L194.13333333333333,119.23264911174778L194.6,142.54176249504093L195.06666666666666,110.87006857395176L195.53333333333333,163.08344682455066L196,134.1572379112244L196.46666666666667,128.08364292383197L196.93333333333334,118.40025236606601L197.39999999999998,135.5584390997887L197.86666666666667,134.86203213930133L198.33333333333334,138.80046089887622L198.79999999999998,119.94815161228183L199.26666666666668,148.98028274774555L199.73333333333335,135.42703857421878L200.2,130.28986355066303L200.66666666666666,145.0916500926018L201.13333333333335,126.16469939947132L201.6,141.09799196720127L202.06666666666666,143.25315048694614L202.53333333333336,152.64251192808155L203,130.23009767532352L203.46666666666667,134.9681653618813L203.93333333333334,138.46924295425418L204.4,127.09215184450153L204.86666666666667,156.73259725570682L205.33333333333331,125.49751600027088L205.79999999999998,137.20076104402546L206.26666666666668,119.31340953111652L206.73333333333332,119.54556276798252L207.2,147.55734851360324L207.66666666666669,142.5119059324265L208.13333333333333,157.10907479524616L208.6,142.49618639945987L209.06666666666666,165.8841084480286L209.53333333333333,137.89938350915912L210,129.9556388497353L210.46666666666667,164.3205424189568L210.93333333333334,141.0527851223946L211.4,124.17881598472599L211.86666666666667,145.49429168701175L212.33333333333331,131.03226860761646L212.8,142.28323420286182L213.26666666666668,128.09741070270542L213.73333333333332,137.6323624491692L214.20000000000002,142.77592023611072L214.66666666666669,129.29895272254947L215.13333333333333,135.61303546428684L215.6,142.22932358980182L216.06666666666666,139.8817326664925L216.53333333333333,124.73749240636829L217,126.86242511272434L217.46666666666664,138.66758337020877L217.93333333333334,154.49361881017688L218.4,167.9513852834702L218.86666666666665,147.55872001647953L219.33333333333334,134.34154679775241L219.8,146.17070635557178L220.26666666666665,146.77844038009647L220.73333333333332,156.7597108125687L221.20000000000002,127.0068021655083L221.66666666666666,139.21117326021198L222.13333333333333,138.4268318653107L222.60000000000002,139.99002864360813L223.06666666666666,163.2897525072098L223.53333333333333,142.30037798881534L224,138.42931112051014L224.46666666666667,138.93750568628315L224.93333333333334,117.61063596010212L225.4,139.65912719964984L225.86666666666667,144.7612761497498L226.33333333333334,145.6311782240868L226.8,133.22160919904712L227.26666666666665,140.73770871162418L227.73333333333335,156.25383725166324L228.2,151.39338930845264L228.66666666666666,148.08426936864856L229.13333333333333,121.08887275457386L229.6,136.4629452466965L230.06666666666666,136.9342674851418L230.53333333333333,125.62976052761081L231,148.534966313839L231.46666666666667,124.34149732589725L231.93333333333334,118.853270316124L232.39999999999998,147.63884743452076L232.86666666666667,121.10622754096988L233.33333333333334,147.42948224544529L233.79999999999998,139.18717195987705L234.26666666666668,113.49058856964115L234.73333333333335,135.46960791349414L235.2,126.90694620609287L235.66666666666666,128.3951323270798L236.13333333333335,134.84673460721973L236.6,145.80203583240512L237.06666666666666,143.73655250072483L237.53333333333336,147.0114376187325L238,147.24612286090854L238.46666666666667,146.97931280136112L238.93333333333334,145.84049066305164L239.4,175.99968066215519L239.86666666666667,147.5399409770966L240.33333333333331,140.2723999857903L240.79999999999998,167.0237745881081L241.26666666666668,148.6051767110825L241.73333333333332,149.88795390129093L242.2,129.78551974296573L242.66666666666669,127.61949470043186L243.13333333333333,153.0208357214928L243.6,131.71422203779224L244.06666666666666,135.57225962877277L244.53333333333333,127.70800938606266L245,165.42692323923114L245.46666666666667,126.65780743360523L245.93333333333334,141.18408014774326L246.4,138.53776534795765L246.86666666666667,135.80478211641315L247.33333333333331,142.78947701454166L247.8,135.1144414186478L248.26666666666668,139.89977320432666L248.73333333333332,143.28026404380802L249.20000000000002,133.4621497035027L249.66666666666669,142.1045695781708L250.13333333333333,135.21651288270954L250.6,157.59511431455616L251.06666666666666,128.39244207143787L251.53333333333333,140.20741184949878L252,160.52358945608142L252.46666666666664,147.90212323665622L252.93333333333334,136.29425039291385L253.4,129.54941024780277L253.86666666666665,150.64486523866657L254.33333333333334,121.20603075027469L254.8,135.17204453945163L255.26666666666665,147.73443063497547L255.73333333333332,174.4532584190369L256.2,152.18590697050098" style="fill: none;" fill="none"></path></g></g></g></g></g></g><g transform="translate(50, 177)" clip-path="url(#clip_1)"><clipPath id="clip_1"><rect width="280" height="23"></rect></clipPath><g><g><line x1="0" y1="0" x2="0" y2="5" style="visibility: inherit;" fill="rgb(0, 0, 0)" stroke="rgb(204, 204, 204)" stroke-width="1px"></line><line x1="23.333333333333332" y1="0" x2="23.333333333333332" y2="5" style="visibility: inherit;" fill="rgb(0, 0, 0)" stroke="rgb(204, 204, 204)" stroke-width="1px"></line><line x1="46.666666666666664" y1="0" x2="46.666666666666664" y2="5" style="visibility: inherit;" fill="rgb(0, 0, 0)" stroke="rgb(204, 204, 204)" stroke-width="1px"></line><line x1="70" y1="0" x2="70" y2="5" style="visibility: inherit;" fill="rgb(0, 0, 0)" stroke="rgb(204, 204, 204)" stroke-width="1px"></line><line x1="93.33333333333333" y1="0" x2="93.33333333333333" y2="5" style="visibility: inherit;" fill="rgb(0, 0, 0)" stroke="rgb(204, 204, 204)" stroke-width="1px"></line><line x1="116.66666666666667" y1="0" x2="116.66666666666667" y2="5" style="visibility: inherit;" fill="rgb(0, 0, 0)" stroke="rgb(204, 204, 204)" stroke-width="1px"></line><line x1="140" y1="0" x2="140" y2="5" style="visibility: inherit;" fill="rgb(0, 0, 0)" stroke="rgb(204, 204, 204)" stroke-width="1px"></line><line x1="163.33333333333334" y1="0" x2="163.33333333333334" y2="5" style="visibility: inherit;" fill="rgb(0, 0, 0)" stroke="rgb(204, 204, 204)" stroke-width="1px"></line><line x1="186.66666666666666" y1="0" x2="186.66666666666666" y2="5" style="visibility: inherit;" fill="rgb(0, 0, 0)" stroke="rgb(204, 204, 204)" stroke-width="1px"></line><line x1="210" y1="0" x2="210" y2="5" style="visibility: inherit;" fill="rgb(0, 0, 0)" stroke="rgb(204, 204, 204)" stroke-width="1px"></line><line x1="233.33333333333334" y1="0" x2="233.33333333333334" y2="5" style="visibility: inherit;" fill="rgb(0, 0, 0)" stroke="rgb(204, 204, 204)" stroke-width="1px"></line><line x1="256.66666666666663" y1="0" x2="256.66666666666663" y2="5" style="visibility: inherit;" fill="rgb(0, 0, 0)" stroke="rgb(204, 204, 204)" stroke-width="1px"></line><line x1="280" y1="0" x2="280" y2="5" style="visibility: inherit;" fill="rgb(0, 0, 0)" stroke="rgb(204, 204, 204)" stroke-width="1px"></line></g><g transform="translate(0, 8)"><text x="0" y="0" dx="0em" dy="0.95em" style="text-anchor: middle; visibility: hidden; font-family: Roboto, sans-serif; font-size: 12px; font-weight: 200;" fill="rgb(33, 33, 33)" stroke="none" stroke-width="1px">-50</text><text x="23.333333333333332" y="0" dx="0em" dy="0.95em" style="text-anchor: middle; visibility: inherit; font-family: Roboto, sans-serif; font-size: 12px; font-weight: 200;" fill="rgb(33, 33, 33)" stroke="none" stroke-width="1px">0</text><text x="46.666666666666664" y="0" dx="0em" dy="0.95em" style="text-anchor: middle; visibility: hidden; font-family: Roboto, sans-serif; font-size: 12px; font-weight: 200;" fill="rgb(33, 33, 33)" stroke="none" stroke-width="1px">50</text><text x="70" y="0" dx="0em" dy="0.95em" style="text-anchor: middle; visibility: inherit; font-family: Roboto, sans-serif; font-size: 12px; font-weight: 200;" fill="rgb(33, 33, 33)" stroke="none" stroke-width="1px">100</text><text x="93.33333333333333" y="0" dx="0em" dy="0.95em" style="text-anchor: middle; visibility: hidden; font-family: Roboto, sans-serif; font-size: 12px; font-weight: 200;" fill="rgb(33, 33, 33)" stroke="none" stroke-width="1px">150</text><text x="116.66666666666667" y="0" dx="0em" dy="0.95em" style="text-anchor: middle; visibility: inherit; font-family: Roboto, sans-serif; font-size: 12px; font-weight: 200;" fill="rgb(33, 33, 33)" stroke="none" stroke-width="1px">200</text><text x="140" y="0" dx="0em" dy="0.95em" style="text-anchor: middle; visibility: hidden; font-family: Roboto, sans-serif; font-size: 12px; font-weight: 200;" fill="rgb(33, 33, 33)" stroke="none" stroke-width="1px">250</text><text x="163.33333333333334" y="0" dx="0em" dy="0.95em" style="text-anchor: middle; visibility: inherit; font-family: Roboto, sans-serif; font-size: 12px; font-weight: 200;" fill="rgb(33, 33, 33)" stroke="none" stroke-width="1px">300</text><text x="186.66666666666666" y="0" dx="0em" dy="0.95em" style="text-anchor: middle; visibility: hidden; font-family: Roboto, sans-serif; font-size: 12px; font-weight: 200;" fill="rgb(33, 33, 33)" stroke="none" stroke-width="1px">350</text><text x="210" y="0" dx="0em" dy="0.95em" style="text-anchor: middle; visibility: inherit; font-family: Roboto, sans-serif; font-size: 12px; font-weight: 200;" fill="rgb(33, 33, 33)" stroke="none" stroke-width="1px">400</text><text x="233.33333333333334" y="0" dx="0em" dy="0.95em" style="text-anchor: middle; visibility: hidden; font-family: Roboto, sans-serif; font-size: 12px; font-weight: 200;" fill="rgb(33, 33, 33)" stroke="none" stroke-width="1px">450</text><text x="256.66666666666663" y="0" dx="0em" dy="0.95em" style="text-anchor: middle; visibility: inherit; font-family: Roboto, sans-serif; font-size: 12px; font-weight: 200;" fill="rgb(33, 33, 33)" stroke="none" stroke-width="1px">500</text><text x="280" y="0" dx="0em" dy="0.95em" style="text-anchor: middle; visibility: hidden; font-family: Roboto, sans-serif; font-size: 12px; font-weight: 200;" fill="rgb(33, 33, 33)" stroke="none" stroke-width="1px">550</text></g><line x1="0" y1="0" x2="280" y2="0" fill="rgb(0, 0, 0)" stroke="rgb(204, 204, 204)" stroke-width="1px"></line></g></g></g></g></svg>